<svg version="1.2" xmlns="http://www.w3.org/2000/svg" viewBox="0 0 1200 290" width="1200" height="290">
	<title>seplag-processo-seletivo-logo-white-svg</title>
	<style>
		.s0 { fill: #ffffff } 
		.s1 { fill: none } 
		.s2 { fill: #232c77 } 
	</style>
	<g id="Layer">
		<path id="Layer" class="s0" d="m986.9 2.8h22.6v283.5h-22.6z"/>
		<path id="Layer" class="s0" d="m300.4 2.8h283.5v283.5h-283.5z"/>
		<path id="Layer" class="s1" d="m0 0h1009.5v289.1h-1009.5z"/>
		<g id="Layer">
			<path id="Layer" class="s2" d="m424.8 101.4h0.4-0.4c0.1-0.1 0.1 0 0 0z"/>
			<path id="Layer" fill-rule="evenodd" class="s2" d="m523.6 87.1c0 0-2.6 0-6.9-2.5 0-0.1-12.1-12.4-15-12.8 0 0 2.9 2.3 12.7 12.9-2.8 0.4-12.4 1.1-23-6.1h-0.1c-1.4-0.8-2.8-1.6-4.3-2.2 0.6 0.9 1.3 1.7 2.2 2.3 2 1.5 6.4 5.2 3.9 10.2l-1.9-0.9-1.3-0.2c-3-0.5-6.1 0.5-8.1 2.8-0.4 0.5-0.8 1-1.4 1.7-1.3 1.4-2.5 2.9-3.8 4.2l-1 3.6h-3c-1.1 0.8-2.4 1.4-3.8 1.5-0.8 0.1-1.4 0.1-1.8 0.1h-0.9c-0.7 0-1.3-0.2-1.8-0.5-0.5-0.2-1.1-0.5-2.4-1.1-0.1 0-0.3-0.1-0.5-0.1h-1.7c-0.7 0.1-1.5 0.2-2.2 0.3-1.1 0.2-2.2 0.4-3.3 0.4-0.8 0-1.6-0.1-2.3-0.4l-13.3 0.2c-0.7 0.6-1.6 0.9-2.5 0.8h-1.5c1.3-0.5 2.6-1.1 3.7-1.9l13.9-0.2c2.5 1.3 7.5-1.1 10.1 0 0.9 0.4 1.6 0.7 1.9 0.9 0.3 0.2 0.6 0.3 0.8 0.4l0.4 0.2h0.5c0.3 0 0.7-0.1 1.3-0.1h1.4c0.3 0 0.5 0 0.7-0.1h0.2c0.1 0 0.3-0.1 0.5-0.2l0.4-0.2c3.8-1.7 8.5-8 10.5-10.1 2.3-2.6 5.7-3.7 9.1-3.1-2.4-4.3-10.5-6.8-17-1.2 3.1-2.7 4.4-6.1 2.2-10.5-1.8 3.4-5.3 8.1-12.2 6.3 0-1-0.2-3.6 4.3-4.5q-2.1-1-4.5-1.2c-2.3-0.2-4.7-0.2-7 0.2-4 0.6-7.8 2.1-11.1 4.5 0.4-2.3 0.8-4.8-0.7-6.6 0.4 1.2-0.8 3.1-2 3.9-0.9 0.6-2 0.7-2.4-0.4-0.4-1.1 1.1-2.2 1.6-3 2.8-3.9 1.2-7.9-2.8-9.9 0.8 0.8 1 2.5 1.3 3.6 0.5 1.5 0.1 2.2-1.2 3.4-2.3 2.1-4.5-1.2-2.1-2.8-5.7 0.9-6.1 5.9-4.8 10.3 0.3 1.1 0.5 2.3 0.6 3.5-4.1-6.2-9.7-6.5-16.7-6.9 2.9 0.5 5.4 2.5 6.5 5.2 1.8 4.9-4.7 5.2-7.1 2.4-5.5-6.5-12.1-9.8-17.5-4.3 1.6-0.3 3.4-0.3 5 0 2.5 0.6 7 3.4 6.6 6.3-0.5 4.2-5.1 1.5-6.7-0.3 0.2 0.9 0.5 1.9 0.8 2.8 0.1 0.3 0.3 0.6 0.4 0.9l0.1 0.1c0.2 0.3 0.3 0.6 0.5 0.9 2.5 4.5 8.1 11.2 12.6 11.2 4.3 0 0.4-2.1 4.3 0 0.7 0.4 1.6 0.7 2.5 0.9l-5.7 0.1h-1.1c-6 0-13-9.8-14.5-13.8-0.3-1-0.6-2-0.8-3l-0.5-4-1.1-1.4c-0.7 0-1.4 0.1-2.1 0.2l-3.3 0.6 2.3-2.4c0.5-0.5 1-0.9 1.5-1.3-1.4 0.6-2.8 1.3-4.1 2.1-10.4 7.2-19.9 6.5-22.9 6.2 9.5-10.4 12.5-12.8 12.5-12.8-2.7 0.4-13.5 11.2-14.9 12.6-4.5 2.7-7.2 2.7-7.2 2.7-6-0.3 2-6.4 8.1-11.2 30.9-24.6 46.4-27.3 54.2-27.1 7.8 0.2 3.6 7.3 3.6 7.3-5.1 8.5-0.4 9.3-0.4 9.3 1.1 0.3 2.2 0.1 3.2-0.4-1.2 1.4-2 3-2.2 4.8 1-2.2 2.4-4.2 4.2-5.8l0.6-0.5c1.1-0.8 2-1.9 2.6-3.1 1.1-3 1.5-6.1 1.3-9.2-0.3-2.7-2.9-2-4.3-2.4-1.4-0.4-1.6-0.8-1.6-0.8 0 0 3.1 0.4 3.1-1.1 0-0.7-0.4-1.2-2.6-1.4-1.4-0.1-2.8 0.2-4 0.8 0 0-0.5-2.3 3.4-2.8 1.3-0.1 2.5 0.1 3.7 0.5 1-1.5 2.7-2.3 4.4-2.2 4.1 0.3 5.1 0.6 7.1-1.7 0.8-0.9 1.8-1.6 2.8-2.2 0 0-1.7 4.5 0.3 4.5 2 0 6.2-1.7 8.2-3.9-0.6 1.4-1 2.8-1.2 4.3-0.4 2.5-4.6 3-4.6 3 0 0 3.9-0.1 3.1 2.5-0.6 2.2-6.2 0.5-6.2 0.5-1.4 8 1.3 11.4 1.3 11.4 1.5 1.9 4.7 5.6 8.3 5 0 0 4.7-0.7-0.4-9.3 0 0-4.2-7.1 3.6-7.3 7.8-0.2 23.3 2.4 54.2 27.1 6.1 4.8 14.1 10.9 8.2 11zm-108.1-11.5h-0.1q0.1 0 0.1 0 0 0 0 0zm25.6-31.3c0-0.1-0.1-0.2-0.2-0.2-0.1 0-0.2 0-0.2 0.1-0.1 0.1-0.2 0.2-0.4 0.2-0.4 0.1-0.8 0.1-1.2 0.1-0.2 0-0.7 0-0.9 0-0.4-0.1-0.8 0-1.2 0.2-0.4 0.2-0.6 0.5-0.6 0.8 0 0.1 0 0.2 0.1 0.2h0.1c0.1 0 0.1 0 0.2-0.1 0.1-0.1 0.3-0.2 0.4-0.2h0.2c0.1 0.4 0.3 0.7 0.7 0.7 0.4 0 0.8-0.3 0.8-0.7 0.5 0 1.1-0.1 1.6-0.3 0.3-0.2 0.5-0.5 0.6-0.8z"/>
			<path id="Layer" class="s2" d="m424.7 101.2l-0.5-0.1c0.2 0.1 0.3 0.1 0.5 0.1z"/>
			<path id="Layer" class="s2" d="m422.4 99.7l-0.5 0.2c0.5 0.2 1.1 0.6 2 1-0.5-0.4-1-1.1-1.5-1.2z"/>
			<path id="Layer" class="s2" d="m423.9 100.9c0.1 0.1 0.2 0.2 0.4 0.2l-0.2-0.1z"/>
			<path id="Layer" class="s2" d="m432.3 100.5h-4c-0.1 0.1-2.3 0-2.5 0-0.2 0-0.4 0.8-1.1 0.8 0.3 0.1 0.7 0.2 1 0.3 2.7 0.3 5.5 0 8-1.1-0.5-0.1-0.9-0.1-1.4 0z"/>
			<path id="Layer" fill-rule="evenodd" class="s2" d="m442.1 229.5h-0.4c-6.2 0.2-12.3-0.9-18.1-3.2-9.4-3.9-17.2-11.2-23.3-21.9-0.8-1.2-6-9.6-6-29.5v-63.5c0.2-1.4 0-2.8-0.5-4.1l0.7-3.2 12.6-8.5 0.9-0.6c0.5 0.6 1.2 1.1 1.9 1.4 0 0 2 1.4 8.1 1.4h47.8c6.2 0 8.8-1.6 8.8-1.6 0.7-0.4 1.3-0.9 1.9-1.4l0.1 0.8 12.6 8.5 0.7 3.2c-0.5 1.3-0.7 2.7-0.5 4.1v63.5c0 19.9-5.1 28.3-5.9 29.5-14.3 25.1-33.9 25.1-41.4 25.1zm-43-117.8v63.2c0 19.3 5.1 26.8 5.1 26.9l0.1 0.2c13 22.8 30.7 22.8 37.4 22.8h0.4c7.3 0 24.4 0 37.4-22.8l0.1-0.2c0-0.1 5.1-7.5 5.1-26.9v-63.2c-0.1-1.6 0-3.1 0.3-4.7l-9.5-6.3c-1.6 1-4.6 1.9-9.8 1.9h-47.8c-5.2 0-8.2-0.8-9.8-1.9l-9.4 6.3c0.4 1.5 0.5 3.1 0.4 4.7z"/>
			<path id="Layer" class="s2" d="m404.9 195.7c-0.4 0-0.8-0.2-1-0.5-0.4-0.6-0.3-1.3 0.3-1.7 0.1-0.1 12.1-8.8 17.1-13.7 15-14.8 23.1-9.2 25.2-7.2 0.3 0.2 1 0.5 1.9-0.3 1.2-1.2 2.5-1.7 3.6-1.4 1.1 0.3 2 1.3 2.5 3 0.9 3.5 3.4 6.3 6.8 7.5 5.1 2 8.8 6.9 9.2 7.6 2.5 2.5 5.8 3.9 9.3 3.8 0.7 0 1.2 0.6 1.2 1.2 0 0.6-0.5 1.1-1.1 1.2-4.3 0.1-8.4-1.6-11.3-4.7l-0.1-0.1c0 0-3.5-5-8.2-6.8-4.1-1.5-7.2-4.9-8.3-9.1-0.3-1-0.6-1.3-0.8-1.4-0.2-0.1-0.6 0.1-1.3 0.8-1.3 1.5-3.7 1.7-5.2 0.4-7-6.8-19.4 4.8-21.8 7.1-5.1 5-16.9 13.5-17.4 13.9 0 0.3-0.3 0.3-0.6 0.4z"/>
			<path id="Layer" class="s2" d="m484.6 198.3c-0.2 0-0.3 0-0.5-0.1-46.3-9.1-82.8-0.1-83.1 0-1.3 0.3-2.6-0.4-2.9-1.7-0.3-1.3 0.4-2.6 1.7-2.9 0.4-0.1 37.8-9.4 85.2 0 1.3 0.2 2.1 1.5 1.9 2.8-0.2 1.2-1.1 2-2.3 1.9z"/>
			<path id="Layer" class="s2" d="m422.6 137.2l9-23c0.9 0.2 1.8-0.3 2.3-1.1 0.1-0.4 0.1-0.7 0-1.1l-1.4-4.7-4.3 2.6-0.2 0.1c-0.2 0.2-0.4 0.4-0.5 0.6-0.2 0.9 0.2 1.9 1 2.3l-0.8 1.9c0 0-0.7 1.4-4.4 0-2.1-0.6-3.3-2.7-2.9-4.8 0 0-14 3.2-6.7 17.3 1.1-1.8 3.5-2.5 5.4-1.6 3.8 1.5 3.2 3.1 3.2 3.1l-3.2 8.2"/>
			<path id="Layer" class="s2" d="m415.6 146.3l-6.8 17.3c-0.4 0.8 0 1.8 0.8 2.2 0.8 0.4 1.8 0 2.2-0.8 0-0.1 0.1-0.1 0.1-0.2l6.6-16.9"/>
			<path id="Layer" fill-rule="evenodd" class="s2" d="m467.2 115.7l-5.7 19.7h-36.9l7.7-19.7zm-11.9 5.2l-5.7 2.4 4.1-4.9h-9.2l0.6 4.9-4.1-2.4-3.2 9.2 5.7-2.4-4.1 4.9h9.2l-0.6-4.9 4.1 2.4z"/>
			<path id="Layer" class="s2" d="m465.3 152.3l10.6-4.7-7.5-12.6-10.2 7.9c0.9 1.6 4 7 7.1 9.4z"/>
			<path id="Layer" class="s2" d="m419.4 146.8c0 0.1 0.6 1.9 4.2 1.3l3.4-3.1c-0.7-1.2-1.3-2.5-1.6-3.9-0.6-2.4-1.2-3.3-2.7-3.3-0.6 0-1.2-0.1-1.8-0.1-1.3-0.1-3-0.2-3.4 0.1-0.4 0.3-0.5 0.5-0.5 0.5 0.1 0.1 0.1 0.1 0.2 0.2 0.6 0.2 1.3 0.4 1.9 0.5 1.7 0.4 2.6 0.6 3 1.1 0.1 0.2 0.1 0.5 0.1 0.7v0.1c-0.7 1.9-0.4 4.1 0.8 5.7l-1 0.8c-0.3-0.4-0.5-0.8-0.7-1.2-0.7 0.3-1.3 0.5-1.9 0.6z"/>
			<path id="Layer" class="s2" d="m445.2 155.6c5.1-2 9.8-5 13.8-8.9-0.8-1.2-1.4-2.3-1.8-3l-3.2 2.5c-3.1 2.1-6.3 3.9-9.6 5.5 0.2 1.3 0.4 2.6 0.8 3.9z"/>
			<path id="Layer" class="s2" d="m448.3 163.6c-3.9-3.4-4.9-9.5-5.1-11.3-0.5 0.2-0.9 0.3-1.4 0.4-0.2 0.9-0.4 1.8-0.7 2.6-0.9 3-2.4 5.7-4.5 8 1.7 1.3 3.8 2.1 6 2.1 2-0.1 4-0.7 5.7-1.8z"/>
			<path id="Layer" class="s2" d="m459.7 147.8c-4.1 3.9-8.9 7-14.2 9 0.7 2.3 2.1 4.4 3.9 6l0.1-0.1c6.7-4.8 12.5-8.5 14.6-9.8-1.7-1.4-3.1-3.2-4.4-5.1z"/>
			<path id="Layer" class="s2" d="m434.5 163.6c0.2-0.2 0.5-0.5 0.8-0.8 1.9-2.4 3.5-5.1 4.6-7.9 0.3-1.1 0.6-2.2 0.7-3.4-1.9-0.4-8-1.7-12.7-5.4l-3.2 2.9c0.6 1.8 3.9 9.9 9.8 14.6z"/>
			<path id="Layer" class="s2" d="m420.5 144.5c0-0.2-0.1-0.4-0.1-0.6-0.4 0.1-0.8 0.2-1.2 0.1-1.4 0-2.8-0.4-4.1-1 0 0.3 0 0.6 0.2 0.8 1.1 1.2 3.9 1 5.2 0.7z"/>
			<path id="Layer" class="s2" d="m416.4 145.7c0.6 0.4 1.8 0.7 4.4-0.1-0.1-0.1-0.1-0.3-0.1-0.4q-1.2 0.3-2.4 0.3c-0.8 0-1.6-0.1-2.3-0.4 0 0.3 0.2 0.5 0.4 0.6z"/>
			<path id="Layer" class="s2" d="m416.4 139.5c-0.2-0.1-0.3-0.2-0.4-0.4-0.2 0-0.3 0.1-0.4 0.2-0.1 0.2-0.1 0.5 0 0.7 0.3 0.8 3.5 1.6 5 1.6 0.1-0.3 0.1-0.7 0.2-1-0.7-0.2-1.3-0.4-2-0.5q-1.2 0-2.4-0.6z"/>
			<path id="Layer" class="s2" d="m420.4 143.2c0-0.2 0-0.5 0-0.7-1.2-0.1-4.1-0.6-5.2-1.6-0.2 0.4-0.4 1-0.1 1.4 0.7 0.7 4.3 1.4 5.3 0.9z"/>
			<path id="Layer" class="s2" d="m402.5 238.2l-3.3 3.9c2.3 1.1 3.6 1.6 3.6 1.6l2.1-4.6c-0.8-0.3-1.7-0.6-2.4-0.9z"/>
			<path id="Layer" class="s2" d="m397 235.7c-0.2-0.1-0.3-0.4-0.2-0.6l3.7-6.4-10.1 8.8c3.1 1.9 5.8 3.3 7.9 4.3l3.3-3.9c-2.8-1.3-4.5-2.2-4.6-2.2z"/>
			<path id="Layer" class="s2" d="m397 235.7c-0.2-0.1-0.3-0.4-0.2-0.6l3.7-6.4-15.3 13.3-1.8 9 9.2-2.4 9-10.7c-2.8-1.3-4.5-2.2-4.6-2.2z"/>
			<path id="Layer" class="s2" d="m499.3 241.9l-15.3-13.3 3.7 6.4c0.1 0.1 0.1 0.3 0 0.4 0 0.1-0.1 0.2-0.2 0.3 0 0-1.7 0.9-4.5 2.1l8.9 10.6 9.2 2.4z"/>
			<path id="Layer" class="s2" d="m480 239.1l1.9 4.1c0.5-0.2 1.6-0.7 3.1-1.4l-2.9-3.5c-0.7 0.2-1.4 0.5-2.1 0.8z"/>
			<path id="Layer" class="s2" d="m411.1 219.4l-3.3 2.9c1.2 0.6 2.9 1.5 4.9 2.3l2-2.4z"/>
			<path id="Layer" class="s2" d="m473.2 219.2l-3.5 2.8 2.2 2.7c2-0.9 3.7-1.7 4.9-2.3z"/>
			<path id="Layer" class="s2" d="m368.6 204.2l-1.5-1.8-2 1.6 1.5 1.8c0.5 0.6 1.3 0.6 1.8 0.2 0.6-0.4 0.6-1.2 0.2-1.8z"/>
			<path id="Layer" fill-rule="evenodd" class="s2" d="m403 224.2l-1.1 1.9-12.4 10.8c-12-7.4-29.6-20.8-40.5-41.6l11.3-13.7c0 0 15.9 29.8 42.7 42.6zm-46.1-24.4l8.5-1.8-1-1.4-6.5 1.6 3.8-5.5-1-1.4-4.7 7.3zm3.4 4.5l6.4-4.8-0.9-1.2-6.4 4.9zm6 3c0.9 0.8 2.3 0.8 3.2 0 0.1-0.1 0.1-0.1 0.2-0.2 1-1.1 1-2.7 0-3.8-0.8-0.9-1.6-1.9-2.4-2.9l-6.2 5.1 1 1.2 2.1-1.7 0.9 1.1-0.6 3.5 1.2 1.3zm2.5 6.9l4.9-4.6 1.7 1.9 1-0.9-4.5-4.8-1 0.9 1.7 1.9-4.9 4.5zm5.2 5.8c1.5 1.1 3.5 0.8 4.6-0.6l3.1-3.4-1.1-1-3.1 3.3c0 0.1-0.1 0.2-0.2 0.3-0.7 0.7-2 0.7-2.7 0-0.1-0.1-0.1-0.1-0.2-0.2-0.7-0.8-0.6-2.1 0.2-2.8l3.1-3.4-1.1-1-3.1 3.3q-0.2 0.2-0.3 0.3c-1.1 1.4-0.9 3.5 0.5 4.7 0.1 0.1 0.2 0.3 0.3 0.5zm6.1 5l4.2-5.1 2 1.6 0.9-1.1-5.1-4.2-0.9 1.1 2 1.6-4.2 5.1zm12.2-1l-4.9-3.5c-1.5 2.2-3.1 4.4-4.6 6.6l4.9 3.4 0.9-1.2-3.7-2.6 1-1.5 3.5 2.5 0.8-1.1-3.5-2.5 1.1-1.5 3.7 2.6z"/>
			<path id="Layer" class="s2" d="m414.7 231.7l-2.1-0.8-1 2.6 2.1 0.8c0.7 0.3 1.6 0 1.9-0.7 0.3-0.7 0-1.6-0.7-1.9 0 0.1-0.1 0-0.2 0z"/>
			<path id="Layer" class="s2" d="m442.1 236.5c-1.5 0.1-2.7 1.4-2.7 2.9 0.1 1.4 1.2 2.6 2.6 2.7 1.5 0 2.6-1.2 2.7-2.6q0-0.1 0-0.3c0.1-1.4-1-2.6-2.4-2.7 0 0-0.1 0-0.2 0z"/>
			<path id="Layer" class="s2" d="m457.5 239.2l2.9-0.5-2.1-3.1z"/>
			<path id="Layer" fill-rule="evenodd" class="s2" d="m486.6 235.1c-3.2 1.6-23.2 11.1-44.4 11.1-20.9 0-41.2-9.5-44.4-11.1l7.5-13.1c11.3 6.3 24 9.7 36.9 9.7 13 0 25.7-3.3 36.9-9.7zm-73.1 0.6c1.5 0.5 3.1-0.3 3.6-1.8 0.5-1.5-0.3-3.1-1.8-3.6-1.1-0.4-2.3-0.9-3.5-1.3l-2.9 7.5 1.4 0.5 0.8-2.2 2.1 0.8c0.1 0.1 0.2 0.1 0.3 0.1zm8.7 3.8l-4-1.1 1.8-6.4-1.5-0.4-2.2 7.7 5.4 1.5zm4.2 2.4c1.8 0.2 3.3-1.1 3.5-2.9l0.9-4.5-1.5-0.3-0.9 4.5c-0.3 1.4-1.2 2-2.4 1.8-0.1 0-0.2-0.1-0.3-0.1-1-0.3-1.6-1.4-1.3-2.5l0.9-4.5-1.5-0.3-0.9 4.5c0 0.2-0.1 0.3-0.1 0.5-0.2 1.8 1.1 3.5 2.9 3.7 0.2 0 0.4 0 0.7 0.1zm6.4-5.1c0.1-0.6 0.7-1 1.8-0.9 0.7 0.1 1.4 0.5 1.8 1.1l1.2-0.5c-0.5-1.2-1.7-1.9-3-1.9-1.4-0.1-3.1 0.4-3.3 2-0.2 1.8 1.3 2.3 2.9 2.7 1 0.3 1.8 0.5 1.7 1.4-0.1 0.9-1 1.1-2 1-0.9 0-1.8-0.6-2.1-1.5l-1.3 0.5c0.5 1.5 1.5 2.1 3.3 2.3 1.8 0.2 3.5-0.3 3.6-2.2 0.1-1.9-1.4-2.5-3-2.9-0.9-0.2-1.7-0.5-1.6-1.1zm13.6 5.8l-0.9-0.9c0.5-0.8 0.8-1.7 0.8-2.6 0-2.3-1.9-4.1-4.2-4.1-2.4 0-4.2 1.9-4.2 4.2 0 2.4 1.9 4.2 4.2 4.2 0.8 0 1.6-0.2 2.3-0.6l1 1zm5.4 0.4c1.8-0.3 2.9-2 2.6-3.8l-0.4-4.6-1.5 0.1 0.4 4.6c0.1 1.4-0.6 2.3-1.8 2.4q-0.1 0-0.3 0c-1.1 0-2-0.9-2-2l-0.4-4.6-1.5 0.1 0.4 4.6c0 0.2 0 0.3 0 0.5 0.3 1.8 2 3.1 3.8 2.8 0.2 0 0.4 0 0.7-0.1zm12.2-2l-5-7.2-1.6 0.3-2.1 8.5 1.6-0.3 0.4-1.6 4.1-0.8 0.9 1.4zm8.7-2.4l-2.2-7.7-1.7 0.5-1.4 4-3.4-2.6-1.7 0.5 2.2 7.7 1.5-0.4-1.6-5.6 3.4 2.6 0.3-0.1 1.5-4.1 1.7 5.5z"/>
			<path id="Layer" class="s2" d="m515.8 203c-1 1.1-0.9 2.7 0.2 3.7 0.1 0.1 0.2 0.1 0.2 0.2 1.1 1 2.8 0.8 3.7-0.3 1-1.1 0.8-2.8-0.3-3.7-1-1-2.6-1.1-3.7-0.1 0.1 0 0 0.1-0.1 0.2z"/>
			<path id="Layer" class="s2" d="m502.5 220.8l-3.3-1.8 0.9 3.6z"/>
			<path id="Layer" class="s2" d="m511.1 208.4l-1.6 1.6 1.8 1.8 1.6-1.6c0.5-0.5 0.6-1.3 0.1-1.8-0.5-0.5-1.3-0.6-1.8-0.1-0.1 0-0.1 0-0.1 0.1z"/>
			<path id="Layer" fill-rule="evenodd" class="s2" d="m534.9 195.2c-10.9 20.6-28.4 33.9-40.4 41.2l-13.4-11.6c24.9-11.6 40.6-38 43.1-42.4zm-28.4 26.2l-7.7-4.1-1.3 1 2 8.5 1.3-1-0.4-1.6 3.3-2.6 1.5 0.8zm3.3-2.8c1.2-1.3 1.1-3.4-0.2-4.6l-3-3.4-1.1 1 3 3.5q0.2 0.2 0.3 0.3c0.7 0.8 0.5 2-0.3 2.7-0.1 0.1-0.1 0.1-0.2 0.2-0.9 0.6-2.2 0.4-2.8-0.5l-3-3.5-1.1 1 3 3.5q0.2 0.2 0.3 0.3c1.3 1.3 3.4 1.3 4.7 0 0.1-0.2 0.3-0.3 0.4-0.5zm8.3-7.9l-0.1-0.1-3.7-0.2c0.8-1 0.6-2.4-0.3-3.2-0.1-0.1-0.1-0.1-0.2-0.2-1.1-1-2.8-0.8-3.7 0.3l-2.7 2.7 5.6 5.6 1.1-1.1-1.9-1.9 1-1 3.5 0.3zm3.2-3.5c1.3-1.7 1-4.2-0.7-5.5 0-0.1-0.1-0.1-0.2-0.2-1.8-1.4-4.4-1.2-5.8 0.6-1.4 1.8-1.2 4.4 0.6 5.8q0.2 0.2 0.3 0.3c1.7 1.3 4.2 1 5.5-0.7q0.2-0.1 0.3-0.3z"/>
			<path id="Layer" class="s2" d="m487.6 188.9c4.6-0.6 10.8-5.2 21.2-13.7 9.9-8.2 10.4-34.2 7.9-45.3-2.6-11.4-4.5-23.5-4.6-23.6l0.9-0.2c0.8 3.4 7.2 23 7.3 23.2 3.8 15.6 1 32.7 0.2 36.8 1.6-0.6 3.2-1.1 4.8-1.4 1.2-0.3 2.5-0.5 3.8-0.9 3.7-1.1 7.2-2.9 10.2-5.2 2.2-1.7 4.4-3.2 6.7-4.6l2.6-1.5-1.9 2.2c-8.3 9.7-15 12.1-19.4 13.1-4 0.9-10.3 6.6-23.1 17.9l-1.7 1.6c-11 9.7-17.6 10.2-16.8 6.7 0.3-1.1 1-2.1 1.9-2.7l0.4-0.6z"/>
			<path id="Layer" class="s2" d="m516.9 187.7c-0.4-1.2-1.3-2.2-2.5-2.7-0.7-0.3-1.4-0.3-2-0.2 0.3-1 0.2-2-0.2-2.9 1.3-0.7 3-0.6 4.2 0.3 1.6 1.3 1.9 3.7 0.5 5.5q0.1-0.2 0 0 0.1-0.2 0 0z"/>
			<path id="Layer" class="s2" d="m511.7 186h0.1c0.7-0.3 1.5-0.3 2.3-0.1 1.2 0.4 2 1.4 2.1 2.7-0.1 1-0.5 1.9-1.1 2.6-1.5 2-4 2.6-5.5 1.4-0.9-0.8-1.4-2-1.1-3.2 0.7-1.5 1.8-2.7 3.2-3.4z"/>
			<path id="Layer" class="s2" d="m506 183c1.1-1.6 3.3-2.1 5-1.1 1.2 1.1 0.5 2.9 0.3 3.4-1.5 0.9-2.7 2.1-3.5 3.6q-0.7-0.1-1.5-0.6c-1.5-1.4-1.7-3.7-0.3-5.3z"/>
			<path id="Layer" class="s2" d="m508.6 126.8c0.3-0.7 0.8-1.4 1.5-1.7 0.4-0.2 0.9-0.2 1.3-0.1-0.2-0.6-0.1-1.3 0.2-1.8-0.8-0.5-1.9-0.4-2.6 0.2-1 0.8-1.2 2.3-0.4 3.4z"/>
			<path id="Layer" class="s2" d="m511.9 125.8q-0.8-0.3-1.5 0c-0.7 0.2-1.3 0.9-1.3 1.7 0.1 0.6 0.3 1.2 0.7 1.6 0.9 1.2 2.5 1.6 3.4 0.9 0.6-0.5 0.8-1.3 0.7-2-0.4-1-1.1-1.7-2-2.2z"/>
			<path id="Layer" class="s2" d="m515.5 123.9c-0.7-1-2.1-1.3-3.1-0.7-0.5 0.6-0.6 1.4-0.2 2.1 0.9 0.6 1.7 1.3 2.2 2.3 0.3-0.1 0.6-0.2 0.9-0.4 0.9-0.9 1-2.4 0.2-3.3z"/>
			<path id="Layer" class="s2" d="m513.9 95.8c1.5-1 2.7-2.4 3.5-4-0.1 1.8 0.4 3.6 1.3 5.2 1.9 3.4 1.8 7.2-1.4 9.5 0 0-2 1.3-3.7 0.9-1.7-0.4-2.9-2.5-2.9-2.5-1.7-3.5 0-6.9 3.2-9.1z"/>
			<path id="Layer" class="s2" d="m525.9 106.4c2.7-0.6 5.1-1.9 7.1-3.8-1.1 2.5-1.4 5.3-1 8 0.9 5.8-1.2 11.2-7 12.8 0 0-3.6 0.8-5.7-0.7-2.1-1.5-2.7-5.1-2.7-5.1-0.7-5.9 3.5-9.8 9.3-11.2z"/>
			<path id="Layer" class="s2" d="m531.9 126.1c2.3 0.3 4.6-0.1 6.7-1.1-1.5 1.7-2.5 3.8-2.9 6.1-0.9 4.9-4 8.6-9 8.3 0 0-3.1-0.3-4.4-2.1-1.3-1.8-0.8-4.8-0.8-4.8 1-4.8 5.4-6.8 10.4-6.4z"/>
			<path id="Layer" class="s2" d="m505.2 115.7c-0.1-1.5-0.7-2.9-1.5-4.1 1.3 0.8 2.7 1.1 4.2 1.1 3.2 0 5.9 1.4 6.3 4.7 0.4 1.8-0.6 3.6-2.4 4-0.4 0.1-0.8 0.1-1.2 0.1-3.2-0.1-5-2.6-5.4-5.8z"/>
			<path id="Layer" class="s2" d="m502.6 136.4c-0.2-2.5-1.1-4.9-2.6-6.9 2.2 1.3 4.7 1.9 7.2 1.8 5.4-0.1 10 2.5 10.8 7.9 0 0 0.3 3.3-1.3 5.1-1.6 1.8-5 1.9-5 1.9-5.5-0.1-8.6-4.3-9.1-9.8z"/>
			<path id="Layer" class="s2" d="m530.5 146.6c2.4-1 4.5-2.7 6-4.8-0.6 2.6-0.4 5.2 0.5 7.7 1.8 5.4 0.8 10.7-4.3 13.2 0 0-3.2 1.4-5.5 0.4-2.3-1-3.5-4.3-3.5-4.3-1.7-5.6 1.6-10 6.8-12.2z"/>
			<path id="Layer" class="s2" d="m545.5 145.7c1.1-0.7 1.9-1.7 2.5-2.8-0.1 1.3 0.3 2.6 0.9 3.7 1.3 2.4 1.3 5.1-1 6.8-1.2 1.1-3 1-4.1-0.2q-0.3-0.4-0.6-0.9c-1.3-2.7-0.1-5.1 2.3-6.6z"/>
			<path id="Layer" class="s2" d="m554.4 159.2c1 1.5 2.4 2.7 4 3.5-1.8-0.1-3.6 0.4-5.2 1.3-3.4 1.9-7.2 1.9-9.5-1.3 0 0-1.3-2-1-3.7 0.3-1.7 2.5-2.9 2.5-2.9 3.6-1.8 7-0.1 9.2 3.1z"/>
			<path id="Layer" class="s2" d="m535.6 173.6c1 2 2.6 3.7 4.5 4.8-2.2-0.3-4.5 0-6.6 0.9-4.5 1.9-9.2 1.4-11.6-2.9 0 0-1.4-2.7-0.7-4.7 0.7-2 3.5-3.2 3.5-3.2 4.6-1.8 8.6 0.8 10.9 5.1z"/>
			<path id="Layer" class="s2" d="m506.9 153.6c-0.5-1.6-1.4-3-2.7-4.1 1.6 0.5 3.3 0.6 4.9 0.1 3.5-0.9 6.8 0.1 8.1 3.5 0.9 1.9 0.2 4.1-1.7 5.1-0.4 0.2-0.8 0.3-1.3 0.4-3.5 0.7-6.1-1.6-7.3-5z"/>
			<path id="Layer" class="s2" d="m499.5 167.1c1.6-1.3 2.8-3 3.4-5 0.1 2.1 0.9 4 2.1 5.7 2.6 3.6 3 7.9-0.3 10.9 0 0-2.1 1.8-4.1 1.5-2-0.3-3.6-2.5-3.6-2.5-2.4-3.7-0.9-7.7 2.5-10.6z"/>
			<path id="Layer" class="s2" d="m502 197.4c1.2 1.8 2.9 3.3 4.9 4.2-2.2-0.1-4.3 0.5-6.2 1.6-4.1 2.3-8.7 2.2-11.5-1.6 0 0-1.6-2.4-1.1-4.5 0.5-2.1 3-3.5 3-3.5 4.1-2.1 8.2-0.1 10.9 3.8z"/>
			<path id="Layer" class="s2" d="m341 153.9c2.3 1.4 4.6 3 6.7 4.6 3.1 2.4 6.5 4.1 10.2 5.2 1.3 0.4 2.5 0.7 3.8 0.9 1.7 0.3 3.3 0.8 4.8 1.4-0.8-4.1-3.6-21.2 0.2-36.8 0.1-0.2 6.4-19.8 7.3-23.2l0.9 0.2c0 0.1-2 12.2-4.6 23.6-2.5 11.1-2 37.1 7.9 45.3 10.3 8.5 17.7 13.9 22.3 14.5h0.1l3.3 4.1 0.4 1.4c-0.4-0.5-1-0.8-1.7-0.8-3.6 0-7.3 2.4-18.2-7.3l-1.8-1.6c-12.7-11.3-19.1-17-23.1-17.9-4.3-1-11-3.4-19.4-13.1l-1.9-2.2z"/>
			<path id="Layer" class="s2" d="m377.1 183.6c-1-1.5-2.7-2.3-4.5-2.2-0.8 0.1-1.3 0.8-1.4 1.5-0.1 0.6 0 1.3 0.4 1.8 0.9 1.4 2.1 2.1 3.1 1.8 0.7-0.4 3-0.3 3.1-1.5-0.1-0.3-0.4-0.9-0.7-1.4z"/>
			<path id="Layer" class="s2" d="m380.1 189.1c0.3 0.3 1.2 1.1 1.8 0.9 0.4-0.1 0.8-0.4 1-0.9 0.3-1 0.1-2.1-0.5-3-0.1-0.2-0.2-0.4-0.3-0.5-0.4-0.7-1.1-1.1-1.8-1.2-0.7 0.1-1.4 0.5-1.8 1.1 0.2 1.1 0.6 2.1 1.2 3.1 0.1 0.2 0.3 0.4 0.4 0.5z"/>
			<path id="Layer" class="s2" d="m378.5 196.2c0.2 0.3 0.5 0.5 0.9 0.7 1.3 0.5 2.1 0.6 2.6 0.4 0.5-0.2 0.8-0.7 1.1-1.7 0.2-0.7-0.1-1.8-1.1-3.2-0.5-0.7-1-1.4-1.6-2-0.4 0.9-1 1.6-1.7 2.2-0.3 0.4-1 2.5-0.2 3.6z"/>
			<path id="Layer" class="s2" d="m375 190.7c0.7 1.2 2.2 1.6 3.4 0.9 1.1-0.8 1.3-2.4 0.5-3.5-0.7-1.2-2.2-1.6-3.4-0.9-1.1 0.8-1.3 2.4-0.5 3.5z"/>
			<path id="Layer" class="s2" d="m374.5 191.1c-0.8-1.1-0.8-2.5-0.2-3.6-1.4 0.3-3.5 1.1-3.5 3 0 0.3 0 0.5 0.2 0.8 0.7 1.1 3.2 1.2 5.1 1.1-0.7-0.3-1.3-0.7-1.6-1.3z"/>
			<path id="Layer" class="s2" d="m374.7 188.3c-0.4 1.5 0.4 3 1.9 3.5 0.2 0.1 0.5 0.1 0.7 0.1-0.9-0.5-1.6-1.1-2.2-1.9-0.4-0.5-0.5-1.1-0.4-1.7z"/>
			<path id="Layer" class="s2" d="m364.5 129.3c0.4-1.5 0-3.1-1-4.2-0.5-0.4-1.3-0.5-1.8-0.1-0.5 0.3-0.8 0.7-1 1.2-0.4 1.3-0.2 2.5 0.5 3 0.6 0.3 1.9 1.8 2.7 1.3 0.2-0.4 0.5-0.8 0.6-1.2z"/>
			<path id="Layer" class="s2" d="m362.6 134.3c0 0.4-0.1 1.4 0.4 1.7 0.3 0.2 0.8 0.3 1.1 0.2 0.7-0.2 1.2-0.9 1.7-2 0.1-0.2 0.1-0.3 0.2-0.5 0.2-0.6 0.2-1.3-0.2-1.9-0.4-0.5-1.1-0.7-1.7-0.6-0.6 0.8-1.1 1.6-1.4 2.5-0.1 0.2-0.1 0.4-0.1 0.6z"/>
			<path id="Layer" class="s2" d="m357 137.1q-0.2 0.5 0 0.9c0.4 1.1 0.7 1.7 1.1 1.9 0.6 0.2 1.2 0.1 1.7-0.2 0.6-0.2 1.1-1.1 1.5-2.5 0.2-0.7 0.3-1.4 0.5-2.2-0.8 0.2-1.6 0.2-2.4 0.1-0.4 0.2-2.1 0.9-2.4 2z"/>
			<path id="Layer" class="s2" d="m358.7 131.8c-0.4 1.1 0.2 2.4 1.3 2.8 1.2 0.5 2.5-0.1 3-1.2 0.5-1.1-0.1-2.5-1.2-3-1.1-0.5-2.5 0.1-3 1.2 0 0 0 0.1-0.1 0.2z"/>
			<path id="Layer" class="s2" d="m358.1 131.6c0.3-1.1 1.2-1.9 2.3-2.1-1-0.8-2.6-1.7-3.9-0.7-0.2 0.1-0.3 0.3-0.4 0.6-0.3 1.1 1 2.8 2.1 4-0.2-0.6-0.2-1.2-0.1-1.8z"/>
			<path id="Layer" class="s2" d="m360.1 130.2c-1.2 0.5-1.8 2-1.2 3.2 0.1 0.2 0.2 0.4 0.3 0.5-0.2-0.8-0.1-1.7 0-2.5q0.1-0.7 0.9-1.2z"/>
			<path id="Layer" class="s2" d="m366.6 101.3c-0.3-0.8 0.5-0.4 0.4-1.3 0-0.3-0.1-0.6-0.1-0.9 0-0.7-0.8-1.1-0.7-1.8 0-0.2 0.8-0.7 0.9-0.9 0.1-0.8-0.2-2.1 0.1-3 0.2-0.4 1-0.3 1.2-0.8 0.2-0.5 0.8-1.1 1.1-1.7 0.5 0.3 1 0.7 1.5 1 0.5 0.3 1-0.2 1.4 0.1 0.7 0.6 1 1.9 1.5 2.6 0.1 0.2 1.1 0.2 1.2 0.4 0.5 0.6 0 1.3 0.3 1.9 0.1 0.3 0.3 0.6 0.4 0.9 0.3 0.9 0.9 0.2 0.9 1 0 0.3-0.4 2.1-0.4 2.4 0 1 0.8 0.8 0.6 1.7-0.1 0.3-1.1 1.8-1.2 2.1-0.3 0.9 0.5 1.2 0.1 1.8-0.5 0.7-1.2 1.3-2 1.8-0.9-0.1-1.8-0.3-2.6-0.7-0.6-0.4 0-1-0.8-1.7-0.2-0.2-1.9-1-2.1-1.2-0.6-0.6 0.2-0.8-0.3-1.7 0-0.3-1.2-1.7-1.4-2z"/>
			<path id="Layer" class="s2" d="m353.2 117.5c-1-0.8 0.4-1-0.5-2.2-0.3-0.4-0.6-0.8-0.9-1.3-0.6-0.9-1.9-1-2.4-2.1-0.1-0.3 0.6-1.6 0.5-1.9-0.4-1.2-1.9-2.8-2.1-4.3-0.1-0.7 1.1-1.2 1-2-0.1-0.8 0.3-2.2 0.3-3.2 1 0 2 0.1 2.9 0.2 0.8 0.1 1.4-1 2-0.9 1.5 0.3 2.9 2 4.1 2.5 0.3 0.1 1.7-0.5 2-0.4 1.1 0.5 1 1.9 1.9 2.5 0.4 0.3 0.8 0.6 1.2 1 1.1 1 1.4-0.4 2.1 0.7 0.3 0.4 1.1 3.2 1.3 3.7 0.8 1.4 1.8 0.5 2.1 1.9 0.1 0.5-0.2 3.4-0.2 3.9 0.3 1.5 1.6 1.3 1.6 2.4-0.2 1.4-0.7 2.8-1.4 4.1-1.3 0.6-2.7 1-4.2 1.1-1.1-0.1-0.8-1.4-2.3-1.8-0.5-0.1-3.4 0-3.9-0.2-1.4-0.4-0.4-1.4-1.7-2.2-0.2-0.1-3-1.2-3.4-1.5z"/>
			<path id="Layer" class="s2" d="m378.2 109c0.7-0.6 0.6 0.4 1.5 0 0.3-0.1 0.6-0.2 1-0.3 0.7-0.2 1-1.1 1.8-1.2 0.2 0 1 0.7 1.2 0.7 0.9-0.1 2.2-0.8 3.2-0.7 0.5 0.1 0.6 0.9 1.1 1 0.5 0.1 1.4 0.6 2.1 0.8-0.2 0.7-0.4 1.3-0.6 1.9-0.2 0.6 0.5 1.1 0.2 1.5-0.5 1-1.8 1.6-2.3 2.4-0.1 0.2 0 1.2-0.1 1.4-0.5 0.7-1.4 0.4-2 0.9-0.3 0.2-0.5 0.4-0.8 0.6-0.8 0.6 0 1-0.8 1.3-0.3 0.1-2.4 0.2-2.7 0.3-1.1 0.3-0.6 1.1-1.6 1.1-0.4 0-2.2-0.7-2.6-0.7-1.1-0.1-1.2 0.8-1.9 0.7-0.9-0.4-1.8-0.9-2.5-1.6q-0.3-1.5 0-3c0.2-0.7 1.1-0.3 1.6-1.3 0.2-0.3 0.5-2.3 0.7-2.6 0.5-0.8 1 0 1.8-0.8 0.3-0.6 1.5-2.2 1.7-2.4z"/>
			<path id="Layer" class="s2" d="m373.7 128.1c0.8-0.9 0.9 0.4 2-0.3 0.4-0.2 0.8-0.4 1.2-0.7 0.9-0.4 1.1-1.7 2.2-2 0.3-0.1 1.4 0.7 1.7 0.7 1.2-0.2 2.8-1.5 4.2-1.5 0.6 0 1 1.1 1.7 1.2 0.7 0.1 2 0.5 2.9 0.6-0.1 0.9-0.3 1.8-0.5 2.6-0.2 0.7 0.8 1.3 0.6 2-0.4 1.4-2.1 2.5-2.7 3.6-0.1 0.3 0.3 1.6 0.1 1.9-0.6 1-1.8 0.8-2.5 1.5-0.3 0.4-0.7 0.7-1 1-1 0.9 0.2 1.3-0.9 1.9-0.4 0.2-3.1 0.7-3.5 0.9-1.4 0.6-0.6 1.6-2 1.8-0.5 0.1-3.1-0.6-3.6-0.5-1.4 0.1-1.4 1.3-2.4 1.2-1.3-0.3-2.5-0.9-3.6-1.7-0.4-1.3-0.6-2.6-0.6-4 0.2-1 1.4-0.6 1.9-2 0.2-0.4 0.3-3.1 0.5-3.6 0.6-1.2 1.3-0.2 2.2-1.4 0.5-0.5 1.8-3 2.1-3.2z"/>
			<path id="Layer" class="s2" d="m373.6 148.9c0.6-0.6 0.6 0.3 1.4-0.2 0.3-0.2 0.6-0.3 0.9-0.5 0.6-0.3 0.7-1.2 1.5-1.4 0.2 0 1 0.5 1.2 0.5 0.8-0.2 1.9-1 2.9-1.1 0.4 0 0.7 0.8 1.2 0.8 0.5 0 1.4 0.3 2 0.4-0.1 0.6-0.2 1.2-0.4 1.8-0.1 0.5 0.6 0.9 0.4 1.4-0.3 0.9-1.5 1.7-1.8 2.5-0.1 0.2 0.2 1.1 0.1 1.3-0.4 0.7-1.2 0.5-1.7 1-0.2 0.2-0.5 0.5-0.7 0.7-0.7 0.6 0.2 0.9-0.6 1.3-0.3 0.1-2.1 0.5-2.4 0.6-1 0.4-0.4 1.1-1.4 1.2-0.3 0.1-2.1-0.4-2.5-0.4-1 0.1-1 0.9-1.7 0.8-0.9-0.2-1.7-0.6-2.5-1.2-0.3-0.9-0.4-1.8-0.4-2.7 0.1-0.7 0.9-0.4 1.3-1.4 0.1-0.3 0.2-2.2 0.4-2.5 0.4-0.8 0.9-0.1 1.5-0.9 0.2-0.1 1.1-1.8 1.3-2z"/>
			<path id="Layer" class="s2" d="m378.8 172.6c-0.3-1 0.7-0.5 0.6-1.6q0-0.6 0-1.2c0-0.9-0.9-1.4-0.6-2.4 0.1-0.2 1.1-0.8 1.2-1 0.3-1 0-2.7 0.5-3.7 0.2-0.5 1.2-0.3 1.5-0.8 0.3-0.5 1.1-1.3 1.6-1.9 0.6 0.5 1.2 0.9 1.8 1.4 0.6 0.5 1.3-0.1 1.7 0.3 0.8 0.9 1.1 2.6 1.6 3.4 0.1 0.2 1.3 0.4 1.5 0.6 0.5 0.8-0.1 1.7 0.2 2.5 0.1 0.4 0.3 0.8 0.4 1.1 0.3 1.1 1.1 0.3 1.1 1.4 0 0.4-0.7 2.6-0.7 3-0.1 1.2 0.9 1.1 0.6 2.1-0.1 0.4-1.6 2.1-1.8 2.5-0.5 1.1 0.5 1.6 0 2.3-0.8 0.8-1.7 1.5-2.7 2-1.1-0.2-2.2-0.5-3.2-1.1-0.7-0.5 0.1-1.3-0.8-2.2-0.3-0.3-2.2-1.5-2.5-1.8-0.7-0.9 0.4-1-0.1-2.2-0.4-0.4-1.7-2.3-1.9-2.7z"/>
			<path id="Layer" class="s2" d="m348.6 153.9c-0.4-1.1 0.7-0.6 0.5-1.8 0-0.4-0.1-0.9-0.1-1.3 0-0.9-1-1.5-0.8-2.6 0-0.3 1.2-0.9 1.2-1.2 0.2-1.1-0.2-2.9 0.3-4.1 0.2-0.6 1.3-0.4 1.6-1 0.3-0.6 1.2-1.5 1.6-2.2 0.7 0.5 1.4 0.9 2 1.4 0.6 0.5 1.5-0.2 1.9 0.2 1 0.9 1.3 2.7 2 3.6 0.2 0.2 1.5 0.4 1.6 0.6 0.6 0.9 0 1.8 0.3 2.7 0.2 0.4 0.3 0.8 0.5 1.2 0.4 1.2 1.2 0.3 1.2 1.4 0 0.4-0.6 2.9-0.6 3.3 0 1.4 1.1 1.1 0.7 2.3-0.1 0.4-1.7 2.4-1.8 2.8-0.5 1.2 0.6 1.7 0.1 2.5-0.8 1-1.7 1.8-2.8 2.4-1.2-0.1-2.5-0.4-3.6-1-0.8-0.5 0-1.4-1-2.3-0.3-0.3-2.5-1.4-2.8-1.8-0.8-0.9 0.3-1.2-0.3-2.4 0.1-0.3-1.5-2.3-1.7-2.7z"/>
			<path id="Layer" class="s2" d="m393.8 203.9c-0.8 0.3-0.4-0.6-1.4-0.5-0.3 0-0.7 0-1 0-0.7 0-1.2 0.8-2.1 0.6-0.2-0.1-0.7-1-0.9-1-0.9-0.2-2.3 0.1-3.2-0.4-0.4-0.2-0.3-1.1-0.7-1.3-0.4-0.2-1.1-1-1.7-1.4q0.6-0.9 1.2-1.5c0.4-0.4-0.1-1.2 0.2-1.5 0.7-0.7 2.2-0.9 2.9-1.5 0.2-0.1 0.3-1.1 0.5-1.3 0.7-0.4 1.4 0.1 2.1-0.2 0.3-0.1 0.7-0.2 1-0.3 1-0.3 0.3-0.9 1.2-0.9 0.3 0 2.3 0.6 2.6 0.6 1.1 0.1 0.9-0.8 1.9-0.5 0.3 0.1 1.9 1.4 2.2 1.6 1 0.4 1.4-0.4 2 0 0.7 0.7 1.3 1.4 1.8 2.3-0.1 1-0.4 1.9-0.9 2.8-0.5 0.6-1.1 0-1.9 0.7-0.2 0.2-1.2 2-1.5 2.2-0.8 0.6-0.9-0.3-1.9 0.1-0.3 0.1-2 1.3-2.4 1.4z"/>
			<path id="Layer" class="s2" d="m336.6 149.7c-0.3-0.6 0.4-0.3 0.3-1.1 0-0.2-0.1-0.5-0.1-0.7 0-0.6-0.6-0.9-0.5-1.5 0-0.2 0.6-0.6 0.7-0.7 0.1-0.6-0.2-1.7 0.1-2.4 0.1-0.3 0.8-0.3 0.9-0.6 0.1-0.3 0.6-0.9 0.9-1.3 0.4 0.2 0.8 0.5 1.2 0.8 0.3 0.2 0.8-0.1 1.1 0.1 0.6 0.5 0.8 1.6 1.2 2.1 0.1 0.1 0.9 0.2 0.9 0.3 0.4 0.5 0 1.1 0.2 1.5 0.1 0.2 0.2 0.5 0.3 0.7 0.2 0.7 0.7 0.1 0.8 0.8 0 0.2-0.3 1.7-0.3 1.9 0 0.8 0.7 0.6 0.5 1.3-0.1 0.2-0.9 1.4-1 1.7-0.2 0.7 0.4 0.9 0.1 1.4-0.4 1.2-1.7 1.8-2.9 1.4-0.3-0.1-0.5-0.2-0.7-0.4-0.5-0.3 0-0.8-0.6-1.3-0.2-0.2-1.5-0.8-1.7-1-0.5-0.5 0.2-0.7-0.2-1.4-0.1-0.3-1.1-1.4-1.2-1.6z"/>
			<path id="Layer" class="s2" d="m335.7 162.9c-0.8 0.1-0.3-0.6-1.3-0.7-0.3 0-0.7-0.1-1-0.1-0.7-0.1-1.3 0.5-2 0.2-0.2-0.1-0.5-1-0.7-1.1-0.8-0.4-2.2-0.3-3-0.8-0.4-0.2-0.1-1-0.5-1.3-0.4-0.3-0.9-1.1-1.4-1.5 0.5-0.5 0.9-0.9 1.3-1.3 0.4-0.4 0.1-1.1 0.5-1.4 0.8-0.6 2.2-0.6 3-0.9 0.2-0.1 0.5-1 0.7-1.1 0.7-0.3 1.3 0.3 2 0.2 0.3-0.1 0.7-0.1 1-0.2 0.9-0.1 0.4-0.8 1.2-0.7 0.3 0.1 2 0.9 2.3 0.9 1 0.2 1-0.6 1.8-0.2 0.3 0.2 1.5 1.6 1.8 1.7 0.8 0.5 1.3-0.2 1.9 0.3 0.6 0.7 1.1 1.5 1.4 2.4-0.3 0.9-0.7 1.7-1.3 2.5-0.5 0.5-1-0.2-1.9 0.4-0.3 0.2-1.5 1.6-1.8 1.8-0.8 0.5-0.8-0.4-1.8-0.1-0.1 0.1-1.8 1-2.2 1z"/>
			<path id="Layer" class="s2" d="m360.5 180.3c-0.9 0.3-0.5-0.6-1.5-0.5-0.4 0-0.8 0-1.1 0-0.8 0-1.4 0.8-2.3 0.6-0.2-0.1-0.8-1-1-1.1-0.9-0.2-2.5 0.1-3.5-0.4-0.5-0.2-0.3-1.2-0.8-1.4-0.5-0.2-1.2-1.1-1.9-1.5 0.4-0.6 0.9-1.2 1.3-1.7 0.4-0.5-0.1-1.3 0.3-1.6 0.8-0.8 2.4-1 3.2-1.6 0.2-0.1 0.4-1.2 0.6-1.4 0.8-0.5 1.6 0.1 2.3-0.2 0.4-0.1 0.7-0.3 1.1-0.4 1-0.3 0.3-1 1.3-1 0.4 0 2.5 0.6 2.8 0.6 1.2 0.1 1-0.9 2-0.6 0.4 0.1 2 1.5 2.4 1.7 1.1 0.4 1.5-0.4 2.2 0 0.8 0.7 1.5 1.6 2 2.5-0.2 1.1-0.5 2.1-1 3-0.5 0.7-1.2 0-2 0.7-0.3 0.2-1.4 2.1-1.7 2.4-0.8 0.7-1-0.3-2.1 0.2-0.4 0.3-2.2 1.6-2.6 1.7z"/>
		</g>
		<path id="Layer" fill-rule="evenodd" class="s0" d="m619.3 63.1c-6.2 0-11.9-3.4-11.9-10.9v-9.7c0-7.4 5.4-10.8 11.6-10.8 3.6 0 7.1 1 10.2 2.8 0.3 0.1 0.4 0.5 0.3 0.8 0 0 0 0.1-0.1 0.1l-2.1 2.9c-0.2 0.3-0.5 0.3-0.8 0.2-2.3-1.3-4.9-2-7.5-2-3.7 0-6.4 2-6.4 6.1v9.5c0 4.2 3.1 6.1 6.7 6.1 2.1 0.1 4.2-0.6 6-1.8v-6.4h-5.7q-0.6 0-0.6-0.6v-3.3q0-0.6 0.6-0.6h10.1q0.6 0 0.6 0.6v11.9c0 0.3 0 0.5-0.2 0.7-2.8 2.9-6.7 4.5-10.8 4.4zm15.5-8.6v-5.7c0-5.4 3.8-8.8 9.7-8.8 5.9 0 9.7 3.5 9.7 8.8v5.7c0 5.3-3.8 8.6-9.7 8.6-5.9 0-9.7-3.3-9.7-8.6zm14.4 0v-5.7c0-2.8-1.7-4.3-4.7-4.3-3 0-4.7 1.5-4.7 4.3v5.7c0 2.8 1.6 4.2 4.7 4.2 3 0 4.7-1.5 4.7-4.2zm15.2 8c-0.3 0-0.6-0.2-0.7-0.5l-7.4-20.8c-0.1-0.4 0.1-0.7 0.5-0.7h4c0.3 0 0.6 0.2 0.7 0.5l5.1 16.7h0.1l5.3-16.5c0.1-0.3 0.4-0.5 0.7-0.5h4c0.1-0.1 0.2 0 0.3 0 0.2 0.1 0.3 0.4 0.2 0.6l-7.5 20.8c-0.1 0.3-0.4 0.5-0.7 0.5zm33.4-9.4q0 0.6-0.6 0.6h-12.9v1.3c0 2.6 1.8 3.9 4.5 3.9 2.2 0 4.3-0.7 6-2 0.1 0 0.1 0 0.1 0 0.3-0.1 0.6-0.1 0.8 0.2l1.8 2.2c0.1 0 0.1 0.1 0.1 0.1 0.2 0.3 0.1 0.6-0.2 0.8-2.4 1.9-5.5 3-8.6 2.9-4.8 0-9.3-2.6-9.3-8.3v-6c0-6.2 4.6-8.7 9.3-8.7 4.7 0 9.2 2.5 9.2 8.7zm-13.4-4.4v1.1h8.8v-1.1c0-3.1-2-4.3-4.4-4.3-2.5 0-4.4 1.2-4.4 4.3zm18.3 13.9c-0.3 0-0.5-0.3-0.5-0.6v-19.6c0-0.3 0.2-0.6 0.5-0.7 2.3-1.1 4.8-1.6 7.4-1.6 1.4 0 2.9 0.1 4.3 0.3 0.3 0 0.5 0.3 0.5 0.6v3.1c0 0.4-0.3 0.6-0.7 0.5-1.1-0.2-2.3-0.2-3.4-0.2-1.2 0-2.5 0.2-3.7 0.6 0 0.1 0 17 0 17.1 0 0.3-0.3 0.5-0.6 0.5-0.1 0-3.7 0-3.8 0zm16.2 0c-0.3 0-0.5-0.3-0.5-0.6v-19.4c0-0.4 0.2-0.7 0.5-0.8 2.7-1.2 5.6-1.7 8.5-1.7 5.9 0 9.9 2.7 9.9 9.5v12.4q0 0.6-0.6 0.6h-3.8c-0.3 0-0.5-0.3-0.5-0.6v-12.3c0-4-1.8-5.2-4.9-5.2-1.3 0-2.7 0.2-4 0.5v17.1c0 0.3-0.3 0.5-0.6 0.5-0.1 0-3.9 0-4 0zm22.6-8.1v-5.7c0-5.4 3.8-8.8 9.7-8.8 5.9 0 9.7 3.5 9.7 8.8v5.7c0 5.3-3.8 8.6-9.7 8.6-5.8 0-9.6-3.3-9.7-8.6zm14.4 0v-5.7c0-2.8-1.7-4.3-4.7-4.3-3 0-4.7 1.5-4.7 4.3v5.7c0 2.8 1.6 4.2 4.7 4.2 3.1 0 4.8-1.4 4.7-4.2zm31.8-21.5c0-0.1 0-0.1 0-0.2 0-0.3 0.3-0.5 0.6-0.5 0.1 0 3.8 0 3.9 0 0.3 0 0.5 0.3 0.5 0.6v28c0 0.3-0.2 0.6-0.5 0.7-2.8 0.9-5.7 1.5-8.6 1.5-5.6 0-9.7-2.8-9.7-9.3v-4.7c0-5.5 3.9-9 9.3-9 1.6 0 3.1 0.3 4.6 0.9zm0.1 25.2v-12.6c-1.2-0.7-2.7-1.1-4.1-1.1-3.1 0-4.8 1.4-4.8 4.6v4.7c0 3.7 1.8 5 4.9 5 1.4 0 2.7-0.2 4-0.6zm27.9-5.1q0 0.6-0.6 0.6h-12.9v1.3c0 2.6 1.8 3.9 4.5 3.9 2.2 0 4.3-0.7 6-2 0.1 0 0.1 0 0.1 0 0.3-0.1 0.6-0.1 0.8 0.2l1.7 2.2 0.1 0.1c0.2 0.3 0.1 0.6-0.2 0.8-2.4 1.9-5.5 3-8.6 2.9-4.8 0-9.3-2.6-9.3-8.3v-6c0-6.2 4.6-8.7 9.3-8.7 4.7 0 9.2 2.5 9.2 8.7zm-13.5-4.4v1.1h8.8v-1.1c0-3.1-2-4.3-4.4-4.3-2.5 0-4.4 1.2-4.4 4.3zm-192.8 110.4c-0.2 0-0.3 0-0.5 0-1.1-0.2-1.9-1.2-1.8-2.4 0-0.2 0-79.6 0-79.8 0.1-1.2 1.1-2 2.3-1.9h20.1c1.2 0 2.3 0.7 2.7 1.8l7.5 15.2c3.9 7.8 8.9 20 10.9 25h0.5c2-5 7-17.1 10.9-25l7.5-15.2c0.4-1.1 1.5-1.8 2.7-1.8 0.2 0 20.4 0 20.6 0 1.2 0.1 2 1.1 1.9 2.3 0 0.2 0 79.8 0 80-0.1 1.1-1.1 1.9-2.3 1.8-0.1 0-18.1 0-18.3 0-1.1-0.2-1.9-1.2-1.8-2.4v-8.6c0-10.5 0.5-25.3 1.3-38.2l-0.6-0.1c-1.8 4.9-7.2 17.5-10.7 25.3l-2 4.4c-0.4 1.2-1.5 1.9-2.7 1.8h-13.2c-1.2 0.1-2.3-0.7-2.7-1.8l-2-4.4c-3.5-7.8-8.9-20.5-10.7-25.3l-0.6 0.1c0.8 12.9 1.3 27.7 1.3 38.2 0 0.2 0 8.9 0 9.1-0.1 1.1-1.1 1.9-2.3 1.8zm149.6-34.8v30.5c0.1 1.3-0.8 2.4-2 2.6-8.1 2.2-16.4 3.2-24.7 3.2-19.9 0-28.9-7.5-28.9-20.8 0-11.8 8.8-17.9 25.5-17.9 2.7 0 5.5 0.2 8.3 0.6v-0.2c0-4.5-1.4-7.8-8.2-7.8-4.5 0-10.2 1.2-13.3 2.7-0.1 0.1-0.3 0.1-0.4 0.2-1.1 0.5-2.3 0.1-2.8-1l-5.4-11.4c-0.8-1.3-0.8-2.2 0-2.8 5.5-3.3 14.4-6.2 25-6.2 17.9 0 26.9 9.3 26.9 28.3zm-21.7 19.1v-8c-1.7-0.4-3.5-0.6-5.2-0.6-4.4 0-6.6 1.5-6.6 4.2 0 3 2.4 4.8 6.7 4.8 1.7 0 3.4-0.1 5.1-0.4zm61.9-2.1c1.7-0.2 2.6 0.4 2.6 2v13.7c0.1 1.2-0.7 2.4-1.9 2.7-2.7 0.7-5.4 1-8.2 0.9-14.9 0-23.7-8.6-23.7-23.3 0-0.2 0-52.2 0-52.4 0.1-1.1 1.1-1.9 2.3-1.8 0.1 0 15.3 0 15.4 0 1.2 0 2.2 1 2.2 2.2l1.5 14.2c0.2 0 9.3 0 9.5 0 1.1 0.1 1.9 1.1 1.8 2.3 0 0.2 0 13.8 0 14-0.1 1.1-1.1 1.9-2.3 1.8h-8.7v16.4c0 5.2 2.1 7.5 6.6 7.5 0.9 0 1.9-0.1 2.9-0.2zm8.8-6.6v-12.6c0-16.6 10.7-26.1 28.8-26.1 18.1 0 28.8 9.5 28.8 26.1v12.5c0 16.5-10.7 26-28.8 26-18.1 0.1-28.8-9.5-28.8-25.9zm35.5 0v-12.6c0-4.3-2.3-6.9-6.7-6.9-4.4 0-6.7 2.6-6.7 6.9v12.6c0 4.3 2.4 6.8 6.7 6.8 4.3 0 6.7-2.5 6.7-6.8zm-238.6 90.1v-22.7c0-20 13-32.1 35.4-32.1 10.1 0 20.5 2.8 28.3 7.5 0.2 0.1 0.3 0.2 0.4 0.3 0.9 0.8 1 2.1 0.2 3l-9.8 14c-0.9 1.3-1.9 1.4-3.2 0.6-4.1-2.3-9.8-3.6-16-3.6-8 0-12 4.3-12 11.2v21.1c0 7.3 3.7 11.5 11.5 11.5 3.5 0 6.9-0.7 10.1-2v-9.8c-0.2 0-10.1 0-10.3 0-1.1-0.1-1.9-1.1-1.8-2.3 0-0.2 0-13.9 0-14.1 0.2-1.2 1.3-2 2.4-1.8 0.2 0 29.3 0 29.5 0 1.1 0.2 1.9 1.2 1.8 2.4v34.5c0 1-0.4 2-1.1 2.7-8.3 7.8-19.3 12.2-30.7 12.2-22.2 0-34.8-12.1-34.7-32.6zm79.2 31.3c-0.2 0-0.3 0-0.5 0-1.1-0.2-1.9-1.2-1.8-2.4v-52.8c-0.1-1.2 0.5-2.3 1.6-2.8 7.1-3.5 14.8-5.2 22.7-5.1q5.4 0.1 10.8 1.2c1.3 0.2 2.2 1.3 2.1 2.6v13c0 0.3 0 0.5-0.1 0.8-0.3 1-1.4 1.6-2.4 1.3-1.8-0.3-3.6-0.4-5.4-0.4-2.6-0.1-5.2 0.4-7.6 1.3 0 0.2 0 41 0 41.2-0.1 1.1-1.1 1.9-2.3 1.8zm40.4-24.6v-12.6c0-16.6 10.7-26.1 28.8-26.1 18.1 0 28.8 9.5 28.8 26.1v12.5c0 16.5-10.7 26-28.8 26-18.1 0.1-28.8-9.5-28.8-25.9zm35.5 0v-12.6c0-4.3-2.3-6.9-6.7-6.9-4.4 0-6.7 2.6-6.7 6.9v12.6c0 4.3 2.4 6.8 6.7 6.8 4.3 0 6.7-2.5 6.7-6.8zm28.4 18.1c-0.1-0.1-0.2-0.1-0.3-0.2-0.9-0.7-1.1-2.1-0.4-3.1l6.6-11c0.9-1.4 1.9-1.6 3.2-0.8 4.8 3.1 10.3 4.7 15.9 4.7 4 0 6.1-1 6.1-2.9 0-1.6-2.1-2.6-6.2-3.2-16.2-2.5-23.8-9.4-23.8-20.2 0-12.7 9.2-20.1 26.9-20.1 7.5 0 14.9 1.8 21.6 5.3 1.4 0.7 1.6 1.9 0.8 3.3l-6.7 10.7c-0.1 0.1-0.1 0.2-0.2 0.3-0.7 1-2 1.2-3 0.5-4-1.9-8.3-2.9-12.7-2.9-3.3 0-5.2 0.5-5.2 2.6 0 1.8 1 2.5 8.2 3.6 14.6 2.3 22.2 9.1 22.2 19.7 0 14.2-8.9 21.5-28.1 21.5-8.9-0.1-17.6-2.8-24.9-7.8zm59-0.1c-0.1-0.1-0.2-0.1-0.3-0.2-1-0.7-1.1-2.1-0.4-3.1l6.6-11c0.9-1.4 1.9-1.6 3.2-0.8 4.8 3.1 10.3 4.7 15.9 4.7 4 0 6.1-1 6.1-2.9 0-1.6-2.1-2.6-6.2-3.2-16.2-2.5-23.8-9.4-23.8-20.2 0-12.7 9.2-20.1 26.9-20.1 7.5 0 14.9 1.8 21.6 5.3 1.4 0.7 1.6 1.9 0.8 3.3l-6.7 10.7c0 0.2-0.1 0.3-0.2 0.4-0.7 1-2.1 1.2-3 0.5-4-1.9-8.3-2.9-12.7-2.9-3.3 0-5.2 0.5-5.2 2.6 0 1.8 1 2.5 8.2 3.6 14.6 2.3 22.2 9.1 22.2 19.7 0 14.2-8.9 21.5-28.1 21.5-8.9-0.1-17.6-2.8-24.9-7.9zm88.2 8c-18.1 0-28.8-9.6-28.8-26v-12.6c0-16.6 10.7-26.1 28.8-26.1 18.1 0 28.8 9.5 28.8 26.1v12.4c0 16.5-10.7 26-28.8 26zm6.7-26v-12.6c0-4.3-2.3-6.9-6.7-6.9-4.4 0-6.7 2.6-6.7 6.9v12.6c0 4.3 2.4 6.8 6.7 6.8 4.3 0 6.7-2.5 6.7-6.8z"/>
		<g id="Layer">
			<path id="Layer" class="s0" d="m133.4 53c-4.4 0-7.7-1.4-11.2-4.2-0.3-0.2-0.4-0.6-0.1-0.9l2.2-3.1c0.2-0.3 0.5-0.4 0.8-0.2 0 0 0 0 0.1 0 2.9 2.1 5.5 3.2 8.5 3.3 3.2 0 6.4-1.4 6.4-4.4 0-3.2-3.3-4-7.1-4.8-4.6-1-10.7-3.1-10.7-9.6 0-6.1 5.4-8.8 11.8-8.8 3.7 0 7.4 1.2 10.4 3.5 0.3 0.1 0.4 0.5 0.2 0.8 0 0 0 0.1-0.1 0.1l-2.1 3c-0.2 0.4-0.6 0.4-0.9 0.1-2.3-1.6-5.1-2.4-7.9-2.5-3.8 0-6 1.5-6 3.9 0 2.8 2.8 3.6 6.7 4.5 5.1 1.1 11.2 2.8 11.2 9.8-0.2 6.6-5.8 9.5-12.2 9.5z"/>
			<path id="Layer" class="s0" d="m155.5 47.6h14.2c0.4 0 0.7 0.2 0.7 0.6v3.6c0 0.3-0.2 0.6-0.5 0.7-0.1 0-0.1 0-0.2 0h-18.9c-0.4 0-0.6-0.2-0.6-0.7v-30.2c0-0.4 0.2-0.7 0.6-0.7h18.2c0.3 0 0.6 0.2 0.7 0.5 0 0.1 0 0.1 0 0.2v3.6c0 0.4-0.2 0.6-0.7 0.6h-13.5v8.2h12.4c0.3 0 0.6 0.2 0.7 0.5 0 0.1 0 0.1 0 0.2v3.5c0 0.3-0.2 0.6-0.5 0.7-0.1 0-0.1 0-0.2 0h-12.4z"/>
			<path id="Layer" fill-rule="evenodd" class="s0" d="m187.1 21c6.9 0 11 4 11 10.7 0 6.7-4.1 10.8-11 10.8h-6.5v9.3c0 0.4-0.2 0.7-0.6 0.7h-4c-0.4 0-0.6-0.2-0.6-0.7v-30.2c0-0.4 0.2-0.7 0.6-0.7zm-0.6 16.6c4.3 0 6.2-1.8 6.2-5.9 0-4.1-2-5.8-6.2-5.8h-5.8v11.7z"/>
			<path id="Layer" class="s0" d="m203.2 52.5c-0.4 0-0.6-0.2-0.6-0.7v-30.2c0-0.4 0.2-0.7 0.6-0.7h4.1c0.4 0 0.6 0.2 0.6 0.7v25.9h12.9c0.4 0 0.7 0.2 0.7 0.6v3.6c0 0.3-0.2 0.6-0.5 0.7-0.1 0-0.1 0-0.2 0h-17.6z"/>
			<path id="Layer" fill-rule="evenodd" class="s0" d="m222.3 52.5c-0.5 0-0.7-0.3-0.5-0.8l10.6-30.2c0.1-0.3 0.4-0.5 0.7-0.5h5c0.3 0 0.6 0.2 0.7 0.5l10.6 30.2c0.1 0.5-0.1 0.8-0.5 0.8h-4.3c-0.3 0-0.7-0.2-0.8-0.5l-2.2-6.6h-12l-2.1 6.6c-0.1 0.3-0.4 0.5-0.8 0.5zm8.7-12h9.1l-4.4-13.7h-0.2z"/>
			<path id="Layer" class="s0" d="m264 53c-6.5 0-12.3-3.6-12.3-11.3v-10c0-7.7 5.6-11.2 12-11.2 3.7 0 7.4 1 10.6 2.9 0.3 0.1 0.4 0.5 0.3 0.8 0 0 0 0.1-0.1 0.1l-2.2 3c-0.2 0.4-0.5 0.4-0.9 0.2-2.3-1.4-5-2.1-7.7-2.1-3.8 0-6.6 2-6.6 6.3v9.9c0 4.3 3.2 6.3 7 6.3 2.2 0.1 4.4-0.6 6.2-1.8v-6.7h-5.9c-0.4 0-0.6-0.2-0.6-0.7v-3.4c0-0.4 0.2-0.7 0.6-0.7h10.5c0.4 0 0.6 0.2 0.6 0.7v12.4c0 0.3 0 0.6-0.2 0.7-3.1 3-7.1 4.7-11.3 4.6z"/>
			<path id="Layer" class="s0" d="m98.5 105.8c-4.4 0-7.7-1.4-11.2-4.2-0.3-0.2-0.4-0.6-0.1-0.9l2.2-3.1c0.2-0.3 0.5-0.4 0.8-0.2 0 0 0 0 0.1 0 2.9 2.1 5.5 3.2 8.5 3.3 3.2 0 6.4-1.4 6.4-4.4 0-3.2-3.3-4-7.1-4.8-4.6-1-10.7-3.1-10.7-9.6 0-6.1 5.4-8.8 11.8-8.8 3.7 0 7.4 1.2 10.3 3.5 0.3 0.1 0.4 0.5 0.2 0.8 0 0 0 0.1-0.1 0.1l-2.1 3c-0.2 0.3-0.6 0.3-0.9 0.1-2.3-1.5-5.1-2.4-7.9-2.5-3.8 0-6 1.5-6 3.9 0 2.8 2.8 3.6 6.7 4.4 5.2 1.1 11.2 2.8 11.2 9.8 0 6.7-5.7 9.6-12.1 9.6z"/>
			<path id="Layer" fill-rule="evenodd" class="s0" d="m132.9 95.4c0 0.4-0.2 0.6-0.7 0.6h-13.3v1.2c0 2.7 1.9 4 4.7 4 2.2 0 4.4-0.7 6.2-2 0.2-0.2 0.6-0.2 0.8 0.1 0 0 0 0 0 0.1l1.8 2.4c0.2 0.2 0.2 0.6 0 0.8l-0.1 0.1c-2.5 2-5.7 3.1-8.9 3-5 0-9.6-2.7-9.6-8.6v-6.1c0-6.5 4.8-9 9.7-9 4.9 0 9.5 2.6 9.5 9zm-9.5-9c-2.6 0-4.5 1.2-4.5 4.5v1.1h9.1v-1.1c-0.1-3.2-2.2-4.5-4.6-4.5z"/>
			<path id="Layer" class="s0" d="m146 105.8c-6.2 0-9.9-3.5-9.9-8.9v-6.1c0-5.4 3.7-8.8 9.8-8.8 2.6 0 5.1 0.7 7.2 2.1 0.3 0.2 0.4 0.5 0.2 0.8 0 0 0 0.1-0.1 0.1l-1.7 2.6c-0.2 0.3-0.6 0.4-0.9 0.2 0 0 0 0-0.1 0-1.4-0.8-3-1.3-4.6-1.3-3.1 0-4.8 1.5-4.8 4.3v6.2c0 2.7 1.8 4.3 4.8 4.3 1.8 0 3.6-0.6 5.1-1.6 0.4-0.2 0.7-0.2 0.9 0.2l1.9 2.6c0.2 0.2 0.2 0.6 0 0.8l-0.1 0.1c-2.2 1.6-4.9 2.4-7.7 2.4z"/>
			<path id="Layer" class="s0" d="m157.7 105.3c-0.3 0-0.6-0.2-0.7-0.5 0-0.1 0-0.1 0-0.2v-20.2c0-0.3 0.2-0.6 0.5-0.8 2.4-1.1 5-1.7 7.7-1.7q2.3 0 4.5 0.3c0.3 0 0.6 0.3 0.6 0.6v3.2c0 0.4-0.3 0.6-0.7 0.5-1.2-0.1-2.4-0.2-3.6-0.2q-1.9 0-3.9 0.6v17.5c0 0.3-0.2 0.6-0.5 0.7-0.1 0-0.1 0-0.2 0h-3.7z"/>
			<path id="Layer" fill-rule="evenodd" class="s0" d="m191.1 95.4q0 0.6-0.6 0.6h-13.4v1.2c0 2.7 1.9 4 4.7 4 2.2 0 4.4-0.7 6.2-2 0.2-0.2 0.6-0.2 0.8 0.1 0 0 0 0 0 0.1l1.8 2.4c0.2 0.2 0.2 0.6 0 0.8l-0.1 0.1c-2.5 2-5.7 3.1-8.9 3-5 0-9.6-2.7-9.6-8.6v-6.1c0-6.5 4.8-9 9.7-9 4.9 0 9.5 2.6 9.5 9zm-9.5-9c-2.6 0-4.5 1.2-4.5 4.5v1.1h9.1v-1.1c-0.1-3.2-2.1-4.5-4.6-4.5z"/>
			<path id="Layer" class="s0" d="m203.6 101.1c0.4 0 1.1 0 1.8-0.1 0.4 0 0.7 0.2 0.7 0.6v3.3c0 0.4-0.2 0.7-0.6 0.7-0.8 0-1.7 0.1-2.3 0.1-4.6 0-8.1-2.3-8.1-8.2v-20c0-0.4 0.2-0.6 0.7-0.6h3.4c0.3 0 0.6 0.2 0.7 0.6l0.4 5.3h4.7c0.3 0 0.6 0.2 0.7 0.5v0.1 3.2c0 0.3-0.2 0.6-0.6 0.6h-0.1-4.7v10.1c-0.2 2.4 1 3.8 3.3 3.8z"/>
			<path id="Layer" fill-rule="evenodd" class="s0" d="m217.6 81.9c5.4 0 9.1 2.7 9.1 8.9v12.8c0 0.3-0.2 0.6-0.5 0.8-2.9 0.9-5.9 1.3-8.9 1.3-5.1 0-9.8-1.8-9.8-7.3 0-4.8 4-7 9.6-7 1.5 0 2.9 0.1 4.4 0.3v-0.7c0-3.1-1.1-4.4-4.4-4.4-2 0-3.9 0.4-5.6 1.4-0.2 0.2-0.6 0.2-0.8-0.1l-0.1-0.1-1.8-2.7c-0.2-0.4-0.2-0.6 0-0.8 2.8-1.7 5.8-2.5 8.8-2.4zm-0.1 19.4c1.4 0 2.8-0.2 4.2-0.5v-5c-1.4-0.2-2.8-0.3-4.3-0.3-3.3 0-4.6 1.1-4.6 2.9 0 2 2 3 4.7 2.9z"/>
			<path id="Layer" class="s0" d="m232.1 105.3c-0.3 0-0.6-0.2-0.7-0.5 0-0.1 0-0.1 0-0.2v-20.2c0-0.3 0.2-0.6 0.5-0.8 2.4-1.1 5-1.7 7.7-1.7q2.2 0 4.5 0.3c0.3 0 0.6 0.3 0.6 0.6v3.2c0 0.4-0.3 0.6-0.7 0.5-1.2-0.1-2.4-0.2-3.6-0.2q-1.9 0-3.9 0.6v17.5c0 0.3-0.2 0.6-0.5 0.7-0.1 0-0.1 0-0.2 0h-3.7z"/>
			<path id="Layer" class="s0" d="m250.2 79.4c-1.6 0-2.9-1.3-2.9-2.8 0 0 0 0 0-0.1 0-1.6 1.2-2.8 2.8-2.9h0.1c1.5-0.1 2.8 1.1 2.9 2.6 0 0.1 0 0.1 0 0.2 0.1 1.5-1.2 2.8-2.7 2.9-0.1 0.1-0.2 0.1-0.2 0.1zm-1.9 25.9c-0.3 0-0.6-0.2-0.7-0.5v-0.1-21.6c0-0.3 0.2-0.6 0.6-0.6h0.1 3.8c0.3 0 0.6 0.2 0.6 0.5v0.1 21.5c0 0.4-0.2 0.7-0.6 0.7z"/>
			<path id="Layer" fill-rule="evenodd" class="s0" d="m266.1 81.9c5.5 0 9.2 2.7 9.2 8.9v12.8c0 0.3-0.2 0.6-0.5 0.8-2.9 0.9-5.8 1.3-8.8 1.3-5.1 0-9.8-1.8-9.8-7.3 0-4.8 4-7 9.6-7 1.5 0 2.9 0.1 4.4 0.3v-0.7c0-3.1-1.1-4.4-4.4-4.4-2 0-3.9 0.5-5.6 1.4-0.2 0.2-0.6 0.2-0.8-0.1l-0.1-0.1-1.8-2.7c-0.2-0.4-0.2-0.6 0-0.8 2.6-1.7 5.6-2.5 8.6-2.4zm-0.2 19.4c1.4 0 2.8-0.2 4.2-0.5v-5c-1.4-0.2-2.8-0.3-4.3-0.3-3.3 0-4.6 1.1-4.6 2.9 0.1 2 2.1 2.9 4.7 2.9z"/>
			<path id="Layer" fill-rule="evenodd" class="s0" d="m52.4 127.2c0-0.3 0.2-0.6 0.5-0.7 0.1 0 0.1 0 0.2 0h3.8c0.3 0 0.6 0.2 0.7 0.5 0 0.1 0 0.1 0 0.2v29c0 0.3-0.2 0.7-0.5 0.8-2.9 1-5.9 1.6-8.9 1.6-5.8 0-10.1-3-10.1-9.7v-4.9c0-5.7 4-9.3 9.6-9.3 1.6 0 3.2 0.4 4.8 1v-8.5zm-4.1 26.9c1.4 0 2.8-0.2 4.1-0.6v-13.1c-1.3-0.8-2.7-1.2-4.2-1.1-3.2 0-5 1.4-5 4.8v4.9c0 3.8 1.9 5.1 5.1 5.1z"/>
			<path id="Layer" fill-rule="evenodd" class="s0" d="m80.9 148.2c0 0.4-0.2 0.6-0.7 0.6h-13.3v1.2c0 2.7 1.8 4 4.7 4 2.2 0 4.4-0.7 6.2-2 0.2-0.2 0.6-0.2 0.8 0.1 0 0 0 0 0 0.1l1.8 2.4c0.2 0.2 0.2 0.6 0 0.8l-0.1 0.1c-2.5 2-5.7 3.1-8.9 3-5 0-9.6-2.7-9.6-8.6v-6.2c0-6.5 4.8-9 9.7-9 4.9 0 9.5 2.6 9.5 9zm-9.5-9c-2.6 0-4.5 1.2-4.5 4.5v1.1h9.1v-1.1c0-3.2-2.1-4.5-4.6-4.5z"/>
			<path id="Layer" class="s0" d="m100 153.2h14.1c0.4 0 0.7 0.2 0.7 0.6v3.6c0 0.3-0.2 0.6-0.5 0.7-0.1 0-0.1 0-0.2 0h-18.8c-0.4 0-0.6-0.2-0.6-0.7v-30.2c0-0.3 0.2-0.6 0.5-0.7h0.1 18.2c0.3 0 0.6 0.2 0.7 0.5v0.1 3.6c0 0.4-0.2 0.6-0.7 0.6h-13.5v8.2h12.4c0.3 0 0.6 0.2 0.7 0.5 0 0.1 0 0.1 0 0.2v3.5c0 0.3-0.2 0.6-0.5 0.7h-0.1-12.5z"/>
			<path id="Layer" class="s0" d="m126.9 158.6c-3.2 0-6.3-1-8.9-2.9-0.4-0.2-0.4-0.5-0.2-0.9l1.7-2.9c0.2-0.4 0.5-0.4 0.9-0.2 1.9 1.4 4.3 2.2 6.6 2.2 2.3 0 4.1-0.9 4.1-2.6 0-1.7-2.1-2.2-4.1-2.6-3.3-0.6-8.9-2-8.9-7.3 0-4.9 4.6-6.9 9.3-6.9 2.7 0 5.3 0.7 7.6 2 0.3 0.1 0.4 0.4 0.3 0.7 0 0.1-0.1 0.1-0.1 0.2l-1.7 2.8c-0.2 0.3-0.6 0.4-0.9 0.2-1.7-0.9-3.6-1.4-5.6-1.4-2.6 0-4 1-4 2.4 0 1.8 2 2.2 4.9 2.8 3.6 0.7 8.2 1.8 8.2 6.9 0 5.1-3.9 7.5-9.2 7.5z"/>
			<path id="Layer" class="s0" d="m148.3 153.9c0.4 0 1.1 0 1.8-0.1 0.4 0 0.7 0.2 0.7 0.6v3.4c0 0.4-0.2 0.7-0.6 0.7-0.8 0-1.7 0.1-2.3 0.1-4.6 0-8.1-2.3-8.1-8.1v-20.1c0-0.4 0.2-0.6 0.7-0.6h3.3c0.3 0 0.6 0.2 0.7 0.6l0.4 5.3h4.7c0.3 0 0.6 0.2 0.7 0.5v0.1 3.2c0 0.3-0.2 0.6-0.6 0.6h-0.1-4.7v10.1c-0.2 2.3 1.1 3.7 3.4 3.7z"/>
			<path id="Layer" fill-rule="evenodd" class="s0" d="m162.3 134.7c5.5 0 9.1 2.7 9.1 8.9v12.9c0 0.3-0.2 0.6-0.5 0.8-2.9 0.9-5.9 1.3-8.9 1.3-5.1 0-9.8-1.9-9.8-7.4 0-4.8 4-7 9.6-7 1.5 0 2.9 0.1 4.4 0.4v-0.8c0-3.1-1.1-4.4-4.4-4.4-2 0-3.9 0.5-5.6 1.4-0.2 0.2-0.6 0.2-0.8-0.1 0 0 0-0.1-0.1-0.1l-1.8-2.7c-0.2-0.4-0.2-0.6 0-0.8 2.8-1.6 5.8-2.4 8.8-2.4zm-0.1 19.5c1.4 0 2.8-0.2 4.2-0.5v-5c-1.4-0.2-2.8-0.3-4.3-0.4-3.3 0-4.6 1.1-4.6 2.9 0 2.1 2 3 4.7 3z"/>
			<path id="Layer" fill-rule="evenodd" class="s0" d="m189.7 127.2c0-0.3 0.2-0.6 0.5-0.7 0.1 0 0.1 0 0.2 0h3.8c0.3 0 0.6 0.2 0.7 0.5 0 0.1 0 0.1 0 0.2v29c0 0.3-0.2 0.7-0.5 0.8-2.9 1-5.9 1.6-8.9 1.6-5.8 0-10.1-3-10.1-9.7v-4.9c0-5.7 4-9.3 9.6-9.3 1.6 0 3.2 0.4 4.8 1v-8.5zm-4.1 26.9c1.4 0 2.8-0.2 4.1-0.6v-13.1c-1.3-0.8-2.7-1.2-4.2-1.1-3.2 0-5 1.4-5 4.8v4.9c0.1 3.8 2 5.1 5.1 5.1z"/>
			<path id="Layer" fill-rule="evenodd" class="s0" d="m209 158.6c-6.1 0-10-3.4-10-8.9v-5.9c0-5.5 4-9.1 10-9.1 6 0 10 3.5 10 9.1v5.9c0 5.5-4 8.9-10 8.9zm0-4.6c3.1 0 4.9-1.5 4.9-4.3v-5.9c0-2.9-1.8-4.5-4.9-4.5-3.1 0-4.9 1.6-4.9 4.5v5.9c0 2.8 1.7 4.3 4.9 4.3z"/>
			<path id="Layer" fill-rule="evenodd" class="s0" d="m246.9 127.2c0-0.3 0.2-0.6 0.5-0.7 0.1 0 0.1 0 0.2 0h3.8c0.3 0 0.6 0.2 0.7 0.5 0 0.1 0 0.1 0 0.2v29c0 0.3-0.2 0.7-0.5 0.8-2.9 1-5.9 1.6-8.9 1.6-5.8 0-10.1-3-10.1-9.7v-4.9c0-5.7 4.1-9.3 9.6-9.3 1.6 0 3.3 0.4 4.8 1v-8.5zm-4.1 26.9c1.4 0 2.8-0.2 4.1-0.6v-13.1c-1.3-0.8-2.7-1.2-4.2-1.1-3.2 0-5 1.4-5 4.8v4.9c0 3.8 1.9 5.1 5.1 5.1z"/>
			<path id="Layer" fill-rule="evenodd" class="s0" d="m276 148.2c0 0.4-0.2 0.6-0.7 0.6h-13.4v1.2c0 2.7 1.9 4 4.7 4 2.2 0 4.4-0.7 6.2-2 0.2-0.2 0.6-0.2 0.8 0.1 0 0 0 0 0 0.1l1.8 2.4c0.2 0.2 0.2 0.6 0 0.8l-0.1 0.1c-2.5 2-5.7 3.1-8.9 3-5 0-9.6-2.7-9.6-8.6v-6.2c0-6.5 4.8-9 9.7-9 4.8 0 9.5 2.6 9.5 9zm-9.5-9c-2.6 0-4.5 1.2-4.5 4.5v1.1h9.1v-1.1c-0.1-3.2-2.2-4.5-4.6-4.5z"/>
			<path id="Layer" fill-rule="evenodd" class="s0" d="m24.6 179.4c7 0 11 4.1 11 10.7 0 6.6-4 10.8-11 10.8h-6.4v9.3c0 0.4-0.2 0.7-0.6 0.7h-4c-0.4 0-0.6-0.2-0.6-0.7v-30.1c0-0.4 0.2-0.7 0.6-0.7zm-0.6 16.6c4.3 0 6.2-1.8 6.2-5.9 0-4.1-2-5.8-6.2-5.8h-5.8v11.7z"/>
			<path id="Layer" class="s0" d="m47.1 211.4c-4.8 0-7.4-3.2-7.4-8.5v-22.8c0-0.3 0.2-0.6 0.5-0.7h0.1 3.8c0.3 0 0.6 0.2 0.7 0.5v0.1 22.6c0 2.9 0.9 4.1 2.9 4.1 0.5 0 1.1 0 1.7-0.1 0.3 0 0.6 0.2 0.7 0.5 0 0.1 0 0.1 0 0.2v3.3c0 0.4-0.1 0.7-0.5 0.7-0.8 0-1.7 0.1-2.5 0.1z"/>
			<path id="Layer" fill-rule="evenodd" class="s0" d="m61.6 187.5c5.4 0 9.2 2.7 9.2 8.9v12.9c0 0.3-0.2 0.6-0.5 0.8-2.9 0.9-5.9 1.3-8.8 1.3-5.1 0-9.8-1.9-9.8-7.4 0-4.8 4-7 9.6-7 1.5 0 2.9 0.1 4.4 0.4v-0.8c0-3.1-1.2-4.4-4.4-4.4-2 0-3.9 0.4-5.7 1.4-0.2 0.2-0.6 0.2-0.8-0.1l-0.1-0.1-1.8-2.7c-0.2-0.4-0.2-0.6 0-0.8 2.7-1.7 5.7-2.5 8.7-2.4zm-0.1 19.4c1.4 0 2.8-0.2 4.2-0.5v-5c-1.4-0.2-2.8-0.3-4.3-0.4-3.3 0-4.6 1.1-4.6 2.9 0 2.1 2 3 4.7 3z"/>
			<path id="Layer" class="s0" d="m76.7 210.9c-0.3 0-0.6-0.2-0.7-0.5 0-0.1 0-0.1 0-0.2v-20.2c0-0.3 0.2-0.7 0.5-0.8 2.8-1.1 5.8-1.7 8.8-1.7 6.1 0 10.2 2.8 10.2 9.9v12.8c0 0.3-0.2 0.6-0.5 0.7h-0.1-3.8c-0.3 0-0.6-0.2-0.7-0.5v-0.1-12.7c0-4.1-1.9-5.4-5.1-5.4-1.4 0-2.8 0.2-4.1 0.5v17.6c0 0.3-0.2 0.6-0.5 0.7-0.1 0-0.1 0-0.2 0z"/>
			<path id="Layer" fill-rule="evenodd" class="s0" d="m119.3 201c0 0.4-0.2 0.6-0.7 0.6h-13.3v1.2c0 2.7 1.8 4.1 4.7 4.1 2.2 0 4.4-0.7 6.2-2 0.2-0.2 0.6-0.2 0.8 0.1 0 0 0 0 0 0.1l1.8 2.4c0.2 0.2 0.2 0.6 0 0.8l-0.1 0.1c-2.5 2-5.7 3.1-8.9 3-5 0-9.6-2.7-9.6-8.6v-6.2c0-6.5 4.8-9 9.7-9 4.9 0 9.5 2.6 9.5 9zm-9.5-9c-2.6 0-4.5 1.2-4.5 4.5v1.1h9.1v-1.1c-0.1-3.2-2.1-4.5-4.6-4.5z"/>
			<path id="Layer" class="s0" d="m122 219.8c-0.7 0-1.5 0-2.2-0.1-0.4 0-0.6-0.3-0.6-0.7v-3.2c0-0.4 0.3-0.7 0.6-0.7h0.1c0.5 0 1 0.1 1.4 0.1 2 0 2.9-1.1 2.9-4v-22.4c0-0.3 0.2-0.6 0.5-0.6h0.1 3.8c0.3 0 0.6 0.2 0.7 0.5v0.1 22.5c0 5.3-2.6 8.4-7.3 8.5zm4.7-34.8c-1.6 0-2.8-1.3-2.9-2.8v-0.1c0-1.6 1.3-2.9 2.9-2.9 1.6 0 2.9 1.3 2.9 2.9 0 1.6-1.2 2.9-2.9 2.9q0.1 0 0 0z"/>
			<path id="Layer" fill-rule="evenodd" class="s0" d="m143.3 187.5c5.5 0 9.1 2.7 9.1 8.9v12.9c0 0.3-0.2 0.6-0.5 0.8-2.9 0.9-5.9 1.3-8.9 1.3-5.1 0-9.8-1.9-9.8-7.4 0-4.8 4-7 9.6-7 1.5 0 2.9 0.1 4.4 0.4v-0.8c0-3.1-1.1-4.4-4.4-4.4-2 0-3.9 0.5-5.6 1.4-0.2 0.2-0.6 0.2-0.8-0.1l-0.1-0.1-1.8-2.7c-0.2-0.4-0.2-0.6 0-0.8 2.8-1.6 5.8-2.4 8.8-2.4zm-0.2 19.5c1.4 0 2.8-0.2 4.2-0.5v-5c-1.4-0.2-2.8-0.3-4.3-0.4-3.3 0-4.6 1.1-4.6 2.9 0.1 2.1 2.1 3 4.7 3z"/>
			<path id="Layer" class="s0" d="m179.2 187.5c5.5 0 9.5 3.2 9.5 9.4v13.3c0 0.4-0.2 0.7-0.6 0.7h-3.8c-0.4 0-0.6-0.2-0.6-0.7v-13.5c0-2.9-1.4-4.6-4.5-4.6-1.4 0-2.7 0.4-3.9 1.1 0.4 1.1 0.6 2.4 0.6 3.6v13.4c0 0.3-0.2 0.6-0.5 0.7-0.1 0-0.1 0-0.2 0h-3.8c-0.3 0-0.6-0.2-0.7-0.5v-0.1-13.5c0-3.2-1.5-4.6-4.4-4.6-1.2 0-2.4 0.2-3.5 0.5v17.6c0 0.3-0.2 0.6-0.5 0.7-0.1 0-0.1 0-0.2 0h-3.8c-0.3 0-0.6-0.2-0.7-0.5 0-0.1 0-0.1 0-0.2v-20.3c0-0.3 0.2-0.7 0.5-0.8 2.5-1.1 5.2-1.7 8-1.7 2.3-0.1 4.5 0.6 6.4 2 2.1-1.3 4.4-2 6.7-2z"/>
			<path id="Layer" fill-rule="evenodd" class="s0" d="m212.5 201c0 0.4-0.2 0.6-0.7 0.6h-13.4v1.2c0 2.7 1.9 4.1 4.7 4.1 2.2 0 4.4-0.7 6.2-2 0.2-0.2 0.6-0.2 0.8 0.1 0 0 0 0 0 0.1l1.8 2.4c0.2 0.2 0.2 0.6 0 0.8 0 0-0.1 0.1-0.2 0.1-2.5 2-5.7 3.1-8.9 3-5 0-9.6-2.7-9.6-8.6v-6.2c0-6.5 4.8-9 9.7-9 4.9 0 9.5 2.6 9.5 9zm-9.5-9c-2.6 0-4.5 1.2-4.5 4.5v1.1h9.1v-1.1c-0.1-3.2-2.1-4.5-4.6-4.5z"/>
			<path id="Layer" class="s0" d="m217.6 210.9c-0.3 0-0.6-0.2-0.7-0.5 0-0.1 0-0.1 0-0.2v-20.2c0-0.3 0.2-0.7 0.5-0.8 2.8-1.1 5.8-1.7 8.8-1.7 6.1 0 10.2 2.8 10.2 9.9v12.8c0 0.4-0.2 0.7-0.6 0.7h-3.8c-0.3 0-0.6-0.2-0.7-0.5v-0.1-12.7c0-4.1-1.9-5.4-5.1-5.4-1.4 0-2.8 0.2-4.1 0.5v17.6c0 0.3-0.2 0.6-0.5 0.7-0.1 0-0.1 0-0.2 0z"/>
			<path id="Layer" class="s0" d="m250.2 206.7c0.4 0 1.1 0 1.8-0.1 0.4 0 0.7 0.2 0.7 0.6v3.3c0 0.4-0.2 0.7-0.6 0.7-0.8 0-1.7 0.1-2.3 0.1-4.6 0-8.1-2.3-8.1-8.1v-20.1c0-0.4 0.2-0.6 0.7-0.6h3.3c0.3 0 0.6 0.2 0.7 0.6l0.4 5.3h4.7c0.3 0 0.6 0.2 0.7 0.5v0.1 3.2c0 0.3-0.2 0.6-0.6 0.6h-0.1-4.7v10.1c-0.1 2.4 1.2 3.8 3.4 3.8z"/>
			<path id="Layer" fill-rule="evenodd" class="s0" d="m265.7 211.4c-6.1 0-10-3.4-10-8.9v-5.9c0-5.5 4-9.1 10-9.1 6 0 10 3.5 10 9.1v5.9c0 5.4-4 8.9-10 8.9zm0-4.6c3.1 0 4.9-1.5 4.9-4.3v-5.9c0-2.9-1.8-4.5-4.9-4.5-3.1 0-4.9 1.6-4.9 4.5v5.9c0 2.8 1.8 4.3 4.9 4.3z"/>
			<path id="Layer" fill-rule="evenodd" class="s0" d="m131.7 253.8c0 0.4-0.2 0.6-0.7 0.6h-13.4v1.2c0 2.7 1.9 4 4.7 4 2.2 0 4.4-0.7 6.2-2 0.2-0.2 0.6-0.2 0.8 0.1 0 0 0 0 0 0.1l1.8 2.4c0.2 0.2 0.2 0.6 0 0.8l-0.1 0.1c-2.5 2-5.7 3.1-8.9 3-5 0-9.6-2.7-9.6-8.6v-6.2c0-6.5 4.8-9 9.7-9 4.9 0 9.5 2.6 9.5 9zm-9.5-9c-2.6 0-4.5 1.2-4.5 4.5v1.1h9.1v-1.1c0-3.2-2.1-4.5-4.6-4.5z"/>
			<path id="Layer" class="s0" d="m158 264.2c-6.5 0-12.3-3.6-12.3-11.3v-10c0-7.7 5.6-11.2 12-11.2 3.7 0 7.4 1 10.6 2.9 0.3 0.2 0.4 0.5 0.3 0.8 0 0 0 0.1-0.1 0.1l-2.2 3c-0.2 0.4-0.5 0.4-0.9 0.2-2.3-1.4-5-2.1-7.8-2.1-3.8 0-6.6 2-6.6 6.3v9.9c0 4.4 3.2 6.3 7 6.3 2.2 0.1 4.4-0.6 6.2-1.9v-6.7h-6c-0.4 0-0.6-0.2-0.6-0.7v-3.4c0-0.4 0.2-0.7 0.6-0.7h10.5c0.4 0 0.6 0.2 0.6 0.7v12.4c0 0.4-0.1 0.6-0.2 0.7-2.9 3.1-6.9 4.8-11.1 4.7z"/>
			<path id="Layer" fill-rule="evenodd" class="s0" d="m193 253.8c0 0.4-0.2 0.6-0.7 0.6h-13.4v1.2c0 2.7 1.9 4 4.7 4 2.2 0 4.4-0.7 6.2-2 0.2-0.2 0.6-0.2 0.8 0.1 0 0 0 0 0 0.1l1.8 2.4c0.2 0.2 0.2 0.6 0 0.8l-0.1 0.1c-2.5 2-5.7 3.1-8.9 3-5 0-9.6-2.7-9.6-8.6v-6.2c0-6.5 4.9-9 9.7-9 4.8 0 9.5 2.6 9.5 9zm-9.5-9c-2.6 0-4.5 1.2-4.5 4.5v1.1h9.1v-1.1c0-3.2-2.1-4.5-4.6-4.5z"/>
			<path id="Layer" class="s0" d="m205.5 264.2c-3.2 0-6.3-1-8.9-2.9-0.4-0.2-0.4-0.5-0.2-0.9l1.7-2.9c0.2-0.4 0.5-0.4 0.9-0.2 1.9 1.4 4.3 2.2 6.6 2.2 2.3 0 4.1-0.9 4.1-2.5 0-1.6-2.1-2.2-4.1-2.6-3.3-0.6-8.9-2-8.9-7.3 0-4.9 4.6-6.9 9.3-6.9 2.7 0 5.3 0.7 7.6 2 0.3 0.1 0.4 0.5 0.3 0.7 0 0 0 0.1-0.1 0.1l-1.7 2.8c-0.2 0.3-0.6 0.4-0.9 0.2-1.7-0.9-3.6-1.4-5.6-1.4-2.6 0-4 1-4 2.4 0 1.8 2 2.2 4.9 2.8 3.6 0.7 8.2 1.8 8.2 6.9 0.1 5.2-3.9 7.5-9.2 7.5z"/>
			<path id="Layer" class="s0" d="m227.4 259.5c0.4 0 1.1 0 1.8-0.1 0.4 0 0.7 0.2 0.7 0.6v3.3c0 0.4-0.2 0.7-0.6 0.7-0.8 0-1.7 0.1-2.3 0.1-4.6 0-8.1-2.3-8.1-8.1v-20.1c0-0.4 0.2-0.6 0.7-0.6h3.3c0.3 0 0.6 0.2 0.7 0.6l0.4 5.3h4.7c0.3 0 0.6 0.2 0.7 0.5v0.1 3.2c0 0.3-0.2 0.6-0.6 0.6h-0.1-4.8v10.1c0 2.4 1.2 3.8 3.5 3.8z"/>
			<path id="Layer" fill-rule="evenodd" class="s0" d="m242 240.3c5.5 0 9.1 2.7 9.1 8.9v12.9c0 0.3-0.2 0.6-0.5 0.8-2.9 0.9-5.9 1.3-8.9 1.3-5.1 0-9.8-1.9-9.8-7.4 0-4.8 4-7 9.6-7 1.5 0 2.9 0.1 4.4 0.4v-0.8c0-3.1-1.1-4.4-4.4-4.4-2 0-3.9 0.5-5.6 1.4-0.2 0.2-0.6 0.2-0.8-0.1l-0.1-0.1-1.8-2.7c-0.2-0.4-0.2-0.6 0-0.8 2.8-1.6 5.8-2.4 8.8-2.4zm3.2-2c-1.2-0.1-2.3-0.5-3.3-1.1-0.8-0.5-1.6-0.9-2.5-1-0.8 0-1.3 0.7-1.7 1.4-0.1 0.3-0.5 0.5-0.8 0.4 0 0-0.1 0-0.1-0.1l-2.1-1.2c-0.3-0.1-0.5-0.4-0.4-0.7 0 0 0-0.1 0.1-0.1 0.6-1.6 2-3.6 4.1-3.6 1.2 0.1 2.3 0.5 3.3 1.1 0.8 0.5 1.8 0.8 2.7 1 0.7 0 1-0.4 1.5-1.4 0.1-0.3 0.4-0.5 0.7-0.4 0.1 0 0.1 0 0.2 0.1l2.1 1.2c0.4 0.2 0.4 0.4 0.4 0.7-0.5 1.5-1.9 3.7-4.2 3.7zm-3.4 21.5c1.4 0 2.8-0.2 4.2-0.5v-5c-1.4-0.2-2.8-0.3-4.3-0.4-3.3 0-4.6 1.1-4.6 2.9 0.1 2.1 2.1 2.9 4.7 3z"/>
			<path id="Layer" fill-rule="evenodd" class="s0" d="m265.7 264.2c-6.1 0-10-3.4-10-8.9v-5.9c0-5.5 4-9.1 10-9.1 6 0 10 3.5 10 9.1v5.9c0 5.5-4 8.9-10 8.9zm0-4.6c3.1 0 4.9-1.5 4.9-4.3v-5.9c0-2.9-1.8-4.5-4.9-4.5-3.1 0-4.9 1.6-4.9 4.5v5.9c0 2.8 1.8 4.3 4.9 4.3z"/>
		</g>
	</g>
</svg>